<?xml version="1.0" encoding="UTF-8" standalone="no"?>
<svg xmlns="http://www.w3.org/2000/svg" xmlns:xlink="http://www.w3.org/1999/xlink" viewBox="0 0 270 185.69">
  <defs>
    <path id="M" fill="url(#a)" d="M732.68 312.58c0 4.0928-3.3179 7.4107-7.4107 7.4107s-7.4107-3.3179-7.4107-7.4107 3.3179-7.4107 7.4107-7.4107 7.4107 3.3179 7.4107 7.4107z"/>
    <path id="ad" fill="url(#b)" d="M690.8 1009.6c-.61591.113-1.2018.3309-1.6334.6074-7.1335 4.4293-10.846 8.8355-10.087 12.7.64807 3.3029 4.4588 5.8606 10.318 7.6368 5.8593 1.7762 13.813 2.8387 23.336 3.2465 19.045.8157 44.436-.9966 71.949-5.5825s51.957-11.08 69.486-17.992c8.7646-3.456 15.811-7.0189 20.624-10.574 4.8132-3.5551 6.0825-7.7502 5.4344-11.053-.0593-.75174-.20995-.66055-1.7052-.41132-1.4953.24924-1.3706.79487-1.1405 1.5181.47932 2.4428-2.7005 5.6071-6.8772 8.692-4.1766 3.0849-10.671 6.407-18.989 9.6869-35.32 10.769-142.04 32.621-163.87 13.911-3.2133-3.0289-.9382-6.2923 5.44-10.253.84436-.5037 1.095-1.221.59104-1.6915-.50393-.4706-1.7231-.6577-2.8752-.4414z" color="#000" filter="url(#c)" opacity=".5" style="block-progression:tb;text-indent:0;text-transform:none"/>
  </defs>
  <defs>
    <linearGradient xlink:href="#d" id="n" x1="-644.48" x2="-475.75" y1="2.861" y2="-2.8594" gradientTransform="matrix(.21839 0 0 .19853 325.16 568.99)" gradientUnits="userSpaceOnUse"/>
    <linearGradient id="d">
      <stop offset="0" stop-color="#9fa3b4"/>
      <stop offset=".44121" stop-color="#faf9fd"/>
      <stop offset="1" stop-color="#9599a9"/>
    </linearGradient>
    <linearGradient xlink:href="#d" id="p" x1="-711.23" x2="-657.84" y1="-50.53" y2="-50.53" gradientTransform="translate(325.16 568.8) scale(.21839)" gradientUnits="userSpaceOnUse"/>
    <linearGradient xlink:href="#d" id="q" x1="-428.57" x2="-347.49" y1="26.695" y2="26.695" gradientTransform="matrix(.08387 -.04154 .04154 .08387 181.93 416.34)" gradientUnits="userSpaceOnUse"/>
    <linearGradient xlink:href="#d" id="u" x1="-428.07" x2="-347.99" y1="426.69" y2="426.69" gradientTransform="matrix(.08387 -.04154 .04154 .08387 219 492.44)" gradientUnits="userSpaceOnUse"/>
    <linearGradient id="v" x1="-696.93" x2="-693.11" y1="-84.851" y2="-52.435" gradientTransform="translate(0 2)" gradientUnits="userSpaceOnUse">
      <stop offset="0"/>
      <stop offset="1" stop-opacity="0"/>
    </linearGradient>
    <linearGradient id="x" x1="-944.17" x2="-371.19" y1="-593.52" y2="209.23" gradientTransform="translate(325.16 568.8) scale(.21839)" gradientUnits="userSpaceOnUse">
      <stop offset="0" stop-color="#f4f4f9"/>
      <stop offset="1" stop-color="#b0b2bf"/>
    </linearGradient>
    <linearGradient xlink:href="#e" id="F" x1="722.86" x2="708.04" y1="302.57" y2="315.88" gradientTransform="matrix(1.2172 -.16881 .17283 1.2462 -440.86 133.97)" gradientUnits="userSpaceOnUse"/>
    <linearGradient id="e">
      <stop offset="0" stop-color="#fcffff"/>
      <stop offset="1" stop-color="#656666" stop-opacity=".9932"/>
    </linearGradient>
    <linearGradient xlink:href="#f" id="G" x1="731.35" x2="737.92" y1="312.51" y2="303.26" gradientTransform="matrix(1.3794 -.1913 .1913 1.3794 -590.82 117.93)" gradientUnits="userSpaceOnUse"/>
    <linearGradient id="f">
      <stop offset="0" stop-color="#e8ebeb"/>
      <stop offset="1" stop-color="#5f6161" stop-opacity=".96078"/>
    </linearGradient>
    <linearGradient xlink:href="#g" id="H" x1="714.7" x2="712.02" y1="318.02" y2="311.95" gradientTransform="matrix(1.3794 -.1913 .1913 1.3794 -565.07 109.03)" gradientUnits="userSpaceOnUse"/>
    <linearGradient id="g">
      <stop offset="0" stop-color="#f4f7f7" stop-opacity="0"/>
      <stop offset="1" stop-color="#464e3b" stop-opacity=".55782"/>
    </linearGradient>
    <linearGradient xlink:href="#e" id="I" x1="722.86" x2="708.04" y1="302.57" y2="315.88" gradientTransform="matrix(1.3794 -.1913 .1913 1.3794 -590.82 117.93)" gradientUnits="userSpaceOnUse"/>
    <linearGradient id="J" x1="749.55" x2="724.55" y1="299.09" y2="299.81" gradientTransform="matrix(1.371 -.2519 .1913 1.3794 -584.61 162.64)" gradientUnits="userSpaceOnUse">
      <stop offset="0" stop-color="#cadaf3"/>
      <stop offset="1" stop-color="#636b78"/>
    </linearGradient>
    <linearGradient xlink:href="#g" id="K" x1="714.82" x2="715.36" y1="309.45" y2="319.09" gradientTransform="matrix(1.3794 -.1913 -.1913 -1.3794 -470.4 986.15)" gradientUnits="userSpaceOnUse"/>
    <linearGradient xlink:href="#g" id="L" x1="714.7" x2="712.02" y1="318.02" y2="311.95" gradientTransform="matrix(1.3794 -.1913 .1913 1.3794 -590.82 117.93)" gradientUnits="userSpaceOnUse"/>
    <linearGradient id="j">
      <stop offset="0" stop-color="#fcffff" stop-opacity="0"/>
      <stop offset="1" stop-color="#ececec" stop-opacity=".99608"/>
    </linearGradient>
    <linearGradient id="N" x1="685.71" x2="693.93" y1="261.22" y2="292.02" gradientTransform="matrix(1.3794 -.1913 .1913 1.3794 -590.82 117.93)" gradientUnits="userSpaceOnUse">
      <stop offset="0" stop-color="#f6ffff" stop-opacity=".65359"/>
      <stop offset=".5" stop-color="#faffff" stop-opacity=".60544"/>
      <stop offset="1" stop-color="#a1a1a1" stop-opacity=".6732"/>
    </linearGradient>
    <linearGradient id="O" x1="705.21" x2="711.53" y1="268.19" y2="257.76" gradientTransform="matrix(1.3794 -.1913 .1913 1.3794 -590.82 117.93)" gradientUnits="userSpaceOnUse">
      <stop offset="0" stop-color="#f4f7f7" stop-opacity="0"/>
      <stop offset="1" stop-color="#464e3b" stop-opacity=".55782"/>
    </linearGradient>
    <linearGradient xlink:href="#h" id="P" x1="654.64" x2="656.07" y1="305.17" y2="311.24" gradientTransform="matrix(1.4463 -.20059 .20175 1.4547 -636.06 99.969)" gradientUnits="userSpaceOnUse"/>
    <linearGradient id="h">
      <stop offset="0" stop-color="#cbcce4"/>
      <stop offset="1" stop-color="#575f66"/>
    </linearGradient>
    <linearGradient xlink:href="#h" id="Q" x1="610.18" x2="610.54" y1="322.67" y2="310.26" gradientTransform="matrix(1.3794 -.1913 .1913 1.3794 -590.82 117.93)" gradientUnits="userSpaceOnUse"/>
    <linearGradient xlink:href="#f" id="S" x1="593.04" x2="589.64" y1="311.86" y2="313.92" gradientTransform="matrix(1.3794 -.1913 .1913 1.3794 -590.82 117.93)" gradientUnits="userSpaceOnUse"/>
    <linearGradient xlink:href="#e" id="U" x1="593.04" x2="587.68" y1="312.49" y2="314.54" gradientTransform="matrix(1.3794 -.1913 .1913 1.3794 -590.82 117.93)" gradientUnits="userSpaceOnUse"/>
    <linearGradient id="l">
      <stop offset="0" stop-color="#08100a"/>
      <stop offset="1" stop-color="#595b5a"/>
    </linearGradient>
    <linearGradient xlink:href="#i" id="Y" x1="565.18" x2="564.34" y1="316.15" y2="313.68" gradientTransform="matrix(1.3794 -.1913 .1913 1.3794 -590.82 117.93)" gradientUnits="userSpaceOnUse"/>
    <linearGradient id="i">
      <stop offset="0" stop-color="#a3aebc"/>
      <stop offset="1" stop-color="#5a5f66"/>
    </linearGradient>
    <linearGradient xlink:href="#i" id="Z" x1="565.18" x2="564.34" y1="316.15" y2="313.68" gradientTransform="matrix(1.205 -.16712 .16034 1.1561 -513.01 178.94)" gradientUnits="userSpaceOnUse"/>
    <linearGradient xlink:href="#i" id="aa" x1="565.27" x2="564.34" y1="317.09" y2="313.68" gradientTransform="matrix(2.0091 .0787 .2164 1.5603 -886.15 -99.942)" gradientUnits="userSpaceOnUse"/>
    <linearGradient xlink:href="#j" id="ab" x1="606.79" x2="595.48" y1="279.49" y2="281.57" gradientTransform="matrix(1.3794 -.1913 .1913 1.3794 -590.82 117.93)" gradientUnits="userSpaceOnUse"/>
    <linearGradient xlink:href="#j" id="ac" x1="603.69" x2="607.73" y1="278.54" y2="271.6" gradientTransform="matrix(1.3794 -.1913 .1913 1.3794 -590.82 117.93)" gradientUnits="userSpaceOnUse"/>
    <linearGradient xlink:href="#k" id="b" x1="612.52" x2="882.34" y1="1027.6" y2="1010.9" gradientUnits="userSpaceOnUse"/>
    <linearGradient id="k">
      <stop offset="0" stop-color="#999"/>
      <stop offset="1" stop-color="#ececec"/>
    </linearGradient>
    <radialGradient id="m" cx="-815.05" cy="164.84" r="300" gradientTransform="matrix(1 0 0 .07416 0 152.61)" gradientUnits="userSpaceOnUse">
      <stop offset="0" stop-color="#1c2422"/>
      <stop offset="1" stop-color="#1c2422" stop-opacity="0"/>
    </radialGradient>
    <radialGradient id="o" cx="-1073.5" cy="157.31" r="205.93" gradientTransform="matrix(1 0 0 .23727 0 119.98)" gradientUnits="userSpaceOnUse">
      <stop offset="0" stop-color="#cecfd8"/>
      <stop offset="1" stop-color="#a5a8b6"/>
    </radialGradient>
    <radialGradient id="r" cx="763.79" cy="48.361" r="289.83" gradientTransform="matrix(1.6031 -.57284 .55235 1.5458 -519.71 367.42)" gradientUnits="userSpaceOnUse">
      <stop offset="0" stop-color="#fff"/>
      <stop offset="1" stop-color="#0270b8"/>
    </radialGradient>
    <radialGradient id="s" cx="787.12" cy="-43.623" r="289.83" gradientTransform="matrix(1.66 -.08629 .08181 1.574 -489.72 30.409)" gradientUnits="userSpaceOnUse">
      <stop offset="0" stop-color="#016ab5" stop-opacity="0"/>
      <stop offset="1" stop-color="#04a"/>
    </radialGradient>
    <radialGradient id="t" cx="606.62" cy="544.73" r="110.49" gradientTransform="matrix(1.1432 .49826 -.54191 1.2621 -224 -507.4)" gradientUnits="userSpaceOnUse">
      <stop offset="0" stop-color="#bebc35"/>
      <stop offset="1" stop-color="#89a02c"/>
    </radialGradient>
    <radialGradient id="z" cx="202.29" cy="496.21" r="25.826" gradientTransform="matrix(.99996 -.00921 .00978 1.0616 -4.8435 -29.026)" gradientUnits="userSpaceOnUse">
      <stop offset="0" stop-color="#4a0"/>
      <stop offset="1" stop-color="#4a0" stop-opacity="0"/>
    </radialGradient>
    <radialGradient id="A" cx="197.71" cy="453.57" r="25.557" gradientTransform="matrix(.77767 -.00494 .00488 .76775 42.306 107.24)" gradientUnits="userSpaceOnUse">
      <stop offset="0" stop-color="#4a0"/>
      <stop offset="1" stop-color="#4a0" stop-opacity="0"/>
    </radialGradient>
    <radialGradient id="B" cx="153.66" cy="519.94" r="20.313" gradientTransform="matrix(.99984 -.01782 .01865 1.0465 -9.6719 -21.446)" gradientUnits="userSpaceOnUse">
      <stop offset="0" stop-color="#4a0"/>
      <stop offset="1" stop-color="#4a0" stop-opacity="0"/>
    </radialGradient>
    <radialGradient id="C" cx="125.03" cy="468.48" r="12.124" gradientTransform="matrix(.99983 -.01832 .02083 1.1367 -9.8434 -57.972)" gradientUnits="userSpaceOnUse">
      <stop offset="0" stop-color="#4a0"/>
      <stop offset="1" stop-color="#55d400" stop-opacity="0"/>
    </radialGradient>
    <radialGradient xlink:href="#j" id="a" cx="721.68" cy="310.81" r="7.4107" gradientTransform="matrix(-2.5804 .38371 -.16034 -.82555 2637.3 291.41)" gradientUnits="userSpaceOnUse"/>
    <radialGradient xlink:href="#e" id="R" cx="534.46" cy="312.99" r="3.0893" gradientTransform="matrix(-.93467 .29216 -.37944 -1.2139 824.59 671.24)" gradientUnits="userSpaceOnUse"/>
    <radialGradient xlink:href="#f" id="T" cx="585.39" cy="325.14" r="10.44" gradientTransform="matrix(1.7708 -.31889 .15692 .87136 -810.29 354.28)" gradientUnits="userSpaceOnUse"/>
    <radialGradient xlink:href="#l" id="V" cx="598.05" cy="319.25" r="6.0268" gradientTransform="matrix(.88368 .18076 -.47543 1.8046 219.92 -363.97)" gradientUnits="userSpaceOnUse"/>
    <radialGradient xlink:href="#e" id="W" cx="595.85" cy="320.26" r="6.0268" gradientTransform="matrix(-.035 -.97506 4.5655 -.15601 -845.43 951.21)" gradientUnits="userSpaceOnUse"/>
    <radialGradient xlink:href="#l" id="X" cx="598.05" cy="319.25" r="6.0268" gradientTransform="matrix(-2.392 .34807 -.2117 -1.1295 2094.7 472.69)" gradientUnits="userSpaceOnUse"/>
    <filter id="w" width="1.0909" height="1.3465" x="-.045444" y="-.17323" color-interpolation-filters="sRGB">
      <feGaussianBlur stdDeviation="1.1012007"/>
    </filter>
    <filter id="y" width="1.1833" height="1.263" x="-.091626" y="-.1315" color-interpolation-filters="sRGB">
      <feGaussianBlur stdDeviation="7.9785464"/>
    </filter>
    <filter id="D" color-interpolation-filters="sRGB">
      <feGaussianBlur stdDeviation="1.3647811"/>
    </filter>
    <filter id="E" color-interpolation-filters="sRGB">
      <feGaussianBlur stdDeviation="1.3013809"/>
    </filter>
    <filter id="c" color-interpolation-filters="sRGB">
      <feGaussianBlur stdDeviation="1.2369199"/>
    </filter>
  </defs>
  <path fill="url(#m)" d="M-515.05 164.84c0 12.287-134.31 22.247-300 22.247-165.68 0-300-9.9603-300-22.247s134.31-22.247 300-22.247c165.68 0 300 9.9603 300 22.247z" color="#000" transform="matrix(.24589 0 0 .33344 386.67605 113.328512)"/>
  <path fill="url(#n)" d="M176.03 562.18c-13.386 0-25.4.81412-33.638 2.1032l-11.479-.0248.17744 3.9333c-.0202.0769-.0341.15197-.0341.22955 0 .10393.0253.20751.0614.31019.001.004-.001.009 0 .0124v.0558h.0205c1.3988 3.2747 20.963 4.5587 44.892 4.5587 24.838 0 44.974-1.4875 44.974-4.9371h.26616l-.20473-3.9706-10.476-.0248c-8.2496-1.3747-20.667-2.2458-34.56-2.2458z" color="#000" transform="translate(-13.907911 -471.137437) scale(1.1259)"/>
  <path fill="url(#o)" d="M-867.58 157.31c0 7.8981-92.199 14.301-205.93 14.301s-205.93-6.4027-205.93-14.301c0-7.8981 92.199-14.301 205.93-14.301s205.93 6.4027 205.93 14.301z" color="#000" transform="translate(448.240262 125.668376) scale(.24589)"/>
  <path fill="url(#p)" d="M169.84 552.14h11.66v11.243s-3.8648.87353-5.8298.87353-5.8298-.87353-5.8298-.87353z" color="#000" transform="translate(-13.907911 -471.137437) scale(1.1259)"/>
  <path fill="url(#q)" d="m157.42 440.23-6.7169 3.3264-4.8312-9.7556s-.84705-5.3558 1.0617-6.3011c1.9087-.94525 5.6553 2.9747 5.6553 2.9747z" transform="translate(-13.907911 -471.137437) scale(1.1259)"/>
  <path fill="url(#r)" d="M1044.9 30.508c0 160.07-129.76 289.83-289.83 289.83s-289.83-129.76-289.83-289.83S595-259.322 755.07-259.322s289.83 129.76 289.83 289.83z" color="#000" transform="translate(27.0838562 72.93122) scale(.21124)"/>
  <path fill="url(#s)" d="M1044.9 30.508c0 160.07-129.76 289.83-289.83 289.83s-289.83-129.76-289.83-289.83S595-259.322 755.07-259.322s289.83 129.76 289.83 289.83z" color="#000" transform="translate(26.7078056 72.93122) scale(.21124)"/>
  <path fill="url(#t)" d="M170.28 435.09c-2.0786.28571-4.1282.67376-6.125 1.1875-.86874.22352-1.7424.4852-2.5938.75-.74732.23244-1.4856.48657-2.2188.75-.15507.0557-.31433.0992-.46875.15625-.2183.0824-.43927.165-.65625.25-.55524.21354-1.11.42519-1.6562.65625-.7074.30349-1.4019.63731-2.0938.96875-.70034.33553-1.3789.69907-2.0625 1.0625.0709.0632.14582.11579.25.21875.51941.51315.40075 1.0745.75 1.625.34951.55047.625 1.625.625 1.625s-.15086.77333-.375 1.0312c-.22418.25763-.71122.45396-1.5938.4375-.88279-.0164.10246 1.2561.28125 1.8438.1788.58768.40076 1.5577.71875 1.9062.31799.34857.6837 1.0252 1.1875 1.4375.50381.41231.75497.2312 1.3438.625.58903.39374 1.3-1.827 1.5625-2.4062.26224-.57925.083-.64272.46875-1.5625.38559-.91913.80603-.91048 2.5-1.9062 1.6942-.99583.7219-1.0985 1.0312-1.375.30941-.27621 1.3329-1.0137 1.8438-1.125.51062-.11126 1.3237-.62467 2.4688-1.1875 1.145-.56283 1.2238-.0399 1.6562-.65625.4327-.61638.57103-.75053.5625-1.375-.009-.62471-.48805-.85141-.25-2.1562.238-1.3052.67934-.25298 2.1875-1.3125.89892-.63171.77171-1.0361.65625-1.4688zm20.312 1.0312c-.0463.0529-.10595.0916-.15625.15625-.58751.75466-1.0566 1.1486-1.4375 1.7188-.38095.57016-1.4302 1.7451-1.7188 2.1562-.28857.41085-1.2928 1.7585-1.3438 2.1875-.0509.42896.22495.7255-.1875 1.0938-.41246.36825-.8885.4522-1.2188.59375-.16512.0708-.17605-.0798-.1875-.15625-.0131.014-.0511.0788-.125.3125-.23618.7477.23721 3.1487.46875 2.75.23153-.39873-.0925-1.4571 1.3125-.71875 1.405.73773 2.1611.45102 2.25 1.4062.0891.95517 1.0115.69746 1.1562.875.14467.17694.625-.4375.625-.4375s1.1042-1.2162 1.0312-1.6875c-.073-.47155.5625-1.7188.5625-1.7188s-.61453-.20147-.71875-.875c-.1042-.67321.0223-.92681.0312-1.625.009-.69794-.62972.15108.875-1.5 1.5043-1.6504 1.7812-.8125 1.7812-.8125s.25243.22175.0312.6875c-.22112.46604-.56358 1.6534-.65625 1.8125-.0928.15972.68533 1.093.96875 1.0312.28393-.0618.80517-.43059 1.1562-.4375.35113-.007.90271-.41006 1.0938-.3125.19129.0975.63804.41372.40625.8125-.23157.39842-.77558.94174-1.25.90625-.47518-.0353-1.3246-.85419-.71875.40625.60587 1.2604.19484 1.7118-.15625 1.7188-.35058.007-1.1761-.51664-.90625.46875.27001.98507-.4858 1.8691-.65625 1.9062-.17046.0371-.5.0312-.5.0312s-.52908.032-.8125.0937c-.28394.0618-.80902.53708-.9375.84375-.12878.30643-.37257.15694-.65625.21875-.28367.0619-.0678-.39529-.65625-.40625-.58818-.011-.95127-.0935-1.25.25-.29899.34352-.80404.58996-1.0625.4375-.25819-.15252.006-.6814-.40625-.3125-.4122.3682-.62151 1.1766-.78125 1.2812-.01.007.004.027 0 .0312-.0449.0151-.0654.0334-.15625.0625-.67061.21603-.93012.47893-1.25.6875-.31977.20918.27017.93841-.3125 1.3438-.58266.40533-.21917-.3045-.75.4375-.53048.74254-.56498 1.2895-.78125 1.4062-.21672.11713-.1558.25885-.65625.4375-.50044.17864-.41374.2145-.6875.34375-.27326.12913.0827.1864-.5625.1875-.64542.001-1.0614.38043-.90625.625.15514.24456 2.3808.53354.78125.8125-1.5995.27894-1.0384.49239-.65625.6875.38234.19505.60032.43827.78125.46875.18087.0302.5625.78125.5625.78125s.46069-.15837.25.375c-.2107.53337.19013.58193 0 1.25-.18985.66801-.2314.2534-.4375.4375-.20616.18379-.50035.73687-1.1875.46875-.6869-.26819-1.1578-.37506-1.9062-.28125-.74827.0932-.24977-.14473-.6875.4375-.43785.58317-.46326 1.1253-.3125 1.7188.1505.59353.32664 1.4024.21875 1.8438-.10769.44103-.0507.82472.15625 1.4062.2075.58111.59375.78125.59375.78125s.81933-.0307 1 0c.18063.0302.49407-.23736 1 0 .50627.23794.96639.2473 1.1875-.21875.22117-.46575 1.2841-1.178 1.5625-1.6562.27785-.47841.48277-.66411.25-1.0312-.23277-.36715.12258-1.4862.375-1.75.25242-.26378.84375-.59375.84375-.59375l.5-1.3438s.45586-.88081.75-.875c.2941.005 1.9675.31958 1.7188-.53125-.249-.85105-.0349-1.1433.1875-.84375.2223.29953.65625.0625.65625.0625s.2048-.1962.40625-.0312c.20143.16458.53437.99756.90625 1.125.37197.12803.68952.25891.9375.34375.24782.0854.47289-.0913 1 .28125.52686.37266 1.0061.56064 1.0938.75.0884.1895.5625.5625.5625.5625s.4155.0494.34375.34375c-.0718.29402-.51811 1.21-.78125 1.4062-.26308.19652-1.0129.10468-.6875.3125.3251.20753.76734.45811.90625.21875.13857-.23802.9922-1.7983 1-1.8125-.0133.003-.0582-.0314-.0625-.34375-.005-.41606-.12768-.8901.1875-.75.31498.14045.52195.38773.59375.0937.0718-.29431.22142-.20364-.0937-.34375-.31524-.14038-1.1802-1.1319-1.5312-1.125-.35112.007-1.3125-.46875-1.3125-.46875s-.20675-.17302-.6875-.625c-.48079-.45227-.56304-.30328-.75-.75-.18614-.44658-.61416-.9673.0312-.96875.64543-.001 1.1198.3757 1.75.65625.63016.28054.52058.45704 1.0938.75.57318.29297.70727.68506 1.0938.53125.38673-.15387.87493.0813.96875.6875.0938.6062.33439 1.2335.46875 1.3438.1346.11016.50085.318.65625.5625.15515.24457.47588.8615.6875 1.0938.21213.23214.4339.41893.65625.71875.22231.29953.21516-.12914.40625-.0312.19129.0974.41668-.012.375-.28125-.0417-.26929-.0625-.75-.0625-.75s.74783-.44576.5-.53125c-.24802-.0851-1.0466-.74954-1.0312-1.0312.0151-.28165-.13759-.81807.15625-.8125.2943.005.6778.54991 1.2188-.125.54093-.67493 1.2271-1.1077 1.125-.25-.10161.85756.20295.92425.28125 1.8125.0791.8881.31088.5838.78125.96875.47012.38502.78927.36497 1.0938.4375.3048.073.75395-.0933 1.2188-.125.46456-.0316.70673-.36085 1.125-.3125.41774.0481 1.2774-.34781 1.4688-.25.19129.0974.80808-.45897.9375 0 .12971.45918.2847-.11454.28125 1-.003 1.1145-.125 1.9062-.125 1.9062-.40545 1.5504-.57024 1.9333-.84375 2.0625-.273.12907-.41647.36231-.9375.40625-.52134.0437-1.1372.25994-1.9062.21875-.76911-.0415-2.0888.6556-2.7188.375-.63012-.28025-1.3674.20947-1.7812-.1875-.41339-.39737-.94989-.18647-1.2188-.40625-.26861-.21984-.51051-.95245-.34375.125.16679 1.0778-.34493 1.2802-.375 1.8438-.0304.56337.2285.21252-.40625.28125-.63481.0685-.74821.51626-1.7812-.0937-1.0333-.61024-1.494-.512-2-.75-.50653-.2379-.78567.79075-1.4062-.1875-.62093-.97879-1.1203.0507-1.3125-.8125-.19227-.86342-.12958-.82376-.15625-1.375-.0262-.55135.53369-1.1411.21875-1.2812-.31518-.14009-.13416-.5388-.5-.25-.36614.28856-.95212.48032-1.375.78125-.15856.11296-.0455.10569.0312.0937-.0348.009-.25084.0811-1.1875.375-2.1822.6843-2.75 1.0938-2.75 1.0938s-.19524-.11239-.4375.21875c-.24199.3311-.5716.83417-1 .71875-.42845-.11573-.67005-.0168-1 .125-.33025.14156-.5922-.20446-.9375.21875-.34535.42291-.7774.6603-.96875.5625-.19182-.0993-.5625-.5625-.5625-.5625l-.65625 1.5312-.46875.78125-1 1-.0937.65625s-.35912.61301-.25.9375c.10913.3245.1875.9375.1875.9375s-.63851 1.0627-.9375 1.4062c-.29898.34352-.65625 1.0312-.65625 1.0312s-.22562.48452-.375.65625c-.14941.17143-.36661.60876-.53125 1.0625-.16463.45374-.3553.77331-.4375 1s-.3507.78457-.40625 1.5625c-.0555.77824-.375 1.75-.375 1.75l-.0625.375c.2342 1.1327.26122 1.308.4375 1.6875.17598.37921.25943.22444.28125 1.125.022.89992.0822 1.2586.0312 1.6875-.051.42836-.28272 1.2319-.34375 1.5938-.0616.36139.375.90625.375.90625s.30121.83575.21875 1.0625c-.0822.22699.15625.59375.15625.59375s.76234.31117 1.0312.53125c.26863.21984.7245.52915.8125.71875.0883.18985.69327 1.0604.78125 1.25.088.1896.63647.82246.78125 1 .14477.17754.84375.78125.84375.78125s.85032.51756 1.0625.75c.21188.23221.73629.24133.9375.40625.20171.16483.58547.0344.84375.1875.25847.15247.65817-.30417.90625-.21875.24778.0853.81938-.29701.96875-.46875.14937-.17173.49736-.73354.8125-.59375.31489.13985.44987-.11156.6875-.0937.23711.0179.52306-.38805.75-.4375.22719-.0495.73606-.43166.90625-.46875.17047-.0371.67906-.57549.90625-.625.22669-.0494.47678-.38502.78125-.3125.30447.0725.11418-.3091.65625-.21875.54208.0903.70483-.1333.90625.0312.20176.16513.38187-.0759.59375.15625.21183.2319.52655.36778.625.625.0982.25728.5.4375.5.4375h.34375s.37631-.49492.53125-.25c.15515.24457.65625.0625.65625.0625l.625.5625.21875.21875s.49447 1.0211.5 1.4375c.006.41629.13896 1.2609 0 1.5-.1389.23934-.0937 1.1562-.0937 1.1562s-.18802.32245.40625.75c.5943.42785 1.0069.83061 1.2188 1.0625.21218.23245.77708.85349.90625 1.3125.12992.45883.27275.72456.59375 1.2812.32076.55675.62024.55729.78125 1.2188.16118.66079.2651.64168.28125 1.125.0163.48391-.12852.57549.0937.875.22235.29983.52497.84828.5 1.0625-.0255.21433 0 1.125 0 1.125l-.0312.4375-.34375 1.25-.25.6875c-.0406.49598-.19223.99509-.0312 1.6562.16072.66121-.18307.73819.375 1.3125.55842.57486.9035 1.2682 1.2812 1.8125.3777.54403.63101 1.1084.75 1.5.11955.39182.36568.48614.5625 1 .19662.5142.32286.78809.375 1.125.0521.33661.10477 1.1979.25 1.375.14447.1773.30784.77433.40625 1.0312.0984.25722-.13239.38392.28125.78125.4136.39702.68967.6188.96875.90625.27908.28748.19406.15934.4375.59375.24315.43417.5368.67129.65625 1.0625.11925.39157.31906 1.3781.5625 1.8125.24319.43448.53125.84375.53125.84375s.72098.33553.9375.21875c.21627-.11672.56562-.81493.9375-.6875.37192.12774.62258-.12569.90625-.1875.28368-.0618.49732-.53187.78125-.59375.28367-.0618.59542-.67913.84375-.59375.24773.0849.48692-.25777.71875-.65625.23188-.39818.38528-.69362.8125-1.3438.42748-.6502.36793-.65172.65625-1.0625.28852-.41114.49869-1.2163.875-1.4375.37631-.22119.43867-.73211.5-1.0938.0616-.3617.0587-.56826.1875-.875.12883-.30613.0704.063.21875-.875.14839-.93766.43514-1.3609.6875-1.625.25243-.26378.37151-.70779.53125-.8125.15973-.10471.48854.11272.28125-.46875-.20699-.58122-.23053-1.479-.375-1.6562-.14508-.17779-.21311.52285-.3125-.5-.0991-1.0223.375-2.1562.375-2.1562s.65358-1.4549.90625-1.7188c.25267-.26384.26907-.48752.625-.84375.35527-.35548 1.1146-1.2256 1.0625-1.5625-.0521-.33691.1563-1.2665.125-1.4688-.0313-.20197-.0846-.41084-.375-1.5312-.29085-1.1197-.024-.90297-.53125-1.9062-.50716-1.0033-.75247-2.3378-1.0312-2.625-.27933-.2874-.30212-1.1998-.34375-1.4688-.0417-.2693.24648-1.0061.375-1.3125.12849-.30667.6875-1.5625.6875-1.5625s.90472-1.7979 1.1875-2.625c.28271-.82774.5705-1.5751.8125-1.9062.24226-.33114.83204-1.084 1.125-1.8438.29321-.75981.8806-2.2225.90625-2.4375.0252-.21398.375-1 .375-1s.49048-1.004.53125-1.5c.0404-.49623.21764-3.2531.125-3.0938-.0921.15957-.75198.44567-.96875.5625-.21623.11702.38586.27559-1.2812.5-1.6665.22363-2.4688.75-2.4688.75-.532-.0236-.80863.71816-1.125-.1875-.31607-.90543-.52436-1.4006-.96875-2-.44491-.5993-.69785-.82917-1.3438-1.5938-.64606-.76391-.53547-.36355-1.0938-.9375-.55811-.57463-.64338-.37414-1.0625-1.1875-.41917-.81368-.5967-.42432-1.125-1.5625-.52834-1.1384-.7881-1.2076-1.0625-1.8438-.27465-.63607-.51127-.79388-.71875-1.375-.20729-.58147-2.017-3.3974-2.2188-3.5625-.20167-.16453-.65053-1.1899-.5625-1 .0883.18955 1 .6875 1 .6875s.42329-.27536.59375-.3125c.1702-.0371.95837.54351 1 .8125.0417.26959 1.4457 1.3064 1.875 2.1875.42959.88099.87084 1.4617.96875 1.7188.0979.25704.83525 1.2078 1.125 1.5625.28925.35483 1.1365.9955 1.3125 1.375.17604.37951 1.4583 1.4995 1.5938 2.375s.83883 1.9306.9375 2.1875c.0986.25687 1.1562.34375 1.1562.34375l1.3125-.6875s1.8041-1.9817 2.0312-2.0312c.22669-.0494 1.875-1.4688 1.875-1.4688s.62483-.97998 1.0625-1.5625c.43791-.58288.8864-1.5707.9375-2 .0507-.42891.23376-.5446.59375-1.25.36035-.70516.89719-1.4323.4375-1.75-.45993-.31733-.6409-.13761-1.3125-.6875-.67179-.54954-.62329-.42956-1.1562-1.2188-.5328-.78858-.2111-1.9147-.90625-.71875-.69467 1.1956-.33605 1.3931-1.1562 1.7812-.81981.38711-1.0299 1.1495-1.5312.5625-.50139-.58699-.83494-.10158-1.2188-1.0625-.38328-.96068-.56855-.98368-.6875-1.375-.11905-.39193-.077-.43229-.6875-1.3438-.61021-.91123-.51286-2.5324-.0937-1.7188.41943.81362.91812.86712 1.75 1.3125.83132.44517 1.215.83103 1.9062.75.69145-.0814 1.272-.26587 1.4062-.15625.13437.11022.1953-.10368.5-.0312.30484.073.3655-.29476.5625.21875.19687.51415.8517.44395 1.1875.71875.33599.27474.30365.12024 1.0625.0937.75895-.0258 1.7812-.21875 1.7812-.21875l.64-.17c-6.57-15.87-20.43-27.92-37.41-32.04zm-46.281 10c-.81553.6356-1.6284 1.2898-2.4062 1.9688.35079.66898.55476 1.1505.40625 1.4062-.20827.3587-.22663.69885-1.0312 1.1875-.80436.4886-1.0805.96888-.40625 1.3438.67401.37522 1.8487.65162 2.4062.84375.55772.19148 2.1101-.0632 1.1875-.90625-.92263-.84315-.0312-1.3438-.0312-1.3438s1.6514.99798.90625-.40625c-.74536-1.4039-1.0907-1.332-.75-1.4062.34067-.0743 1.0938.28125 1.0938.28125l.21875-.875-.53125-1.25-1.0625-.84375zm-6.0312 7.7812v.0312c-.15399.0114-.29231.0456-.34375.1875-.16444.45339-1.1684 2.003-1.375 2.1875-.20606.18439-.74661-1.0309-.59375 1.0938.15271 2.1253 1.0434 2.5738.15625 2.9062-.88718.33252-1.5625 1.0938-1.5625 1.0938s-.7396.24267-.65625.78125c.0835.53917.008 1.8848-.3125 2.0938-.31953.20911-1.2163.18616-1.5625-.15625-.34624-.34243-.25-1.9062-.25-1.9062l.4375-.71875s-.68271.0275-1.4062.0312c-4.3956 7.5094-7.0693 16.159-7.4062 25.406.018-.0502.043-.0653.0625-.125.31859-.97474.71874-1.3582.75-1.1562.0313.20227.73027-.20849.875-.0312.14472.17723.32156-.22394.78125.0937.45997.31763 1.0255.25471 1 .46875-.0255.21432.2812.17273.3125.375.0529-.037.19134-.29732.34375.6875.18764 1.2124.5625 1.875.5625 1.875s.5486.92685.6875.6875c.13895-.23905.40625-.84375.40625-.84375s.52227-.54719-.0937-1.875c-.61625-1.3275-.4073-1.7719-.59375-2.2188-.1867-.44678-.24355-.71444.34375-1.4688.5873-.75431 2.0505-2.4566 2.4062-2.8125.35547-.35584 1.125-1.3125 1.125-1.3125s.30766-.26121.28125-.8125c-.0267-.55095.9222-1.7495.9375-2.0312.0153-.28169.65625-1.0938.65625-1.0938s.70253-.70731.59375-1.0312c-.10883-.32425.86104-1.1817 1.0312-1.2188.1702-.0371 1.1251.10618 1.0312-.5-.0938-.60591-.10925-.74398.375-1.4062.48401-.6622 1.1223-1.6256 1.4062-1.6875.28368-.0618 1.155-.87227 1.5312-1.0938.37651-.22154 1.5101-1.1808.5-.125-1.0102 1.0552-.34604.43328-.46875 1.1562-.1225.72261-.1721 1.6204.75.375.92214-1.2451.83172-1.4401 1.2188-1.5938.38698-.15392.16962.17866.96875-.34375.79944-.52217.8125-.65625.8125-.65625s.35219-.50409.0937-.65625c-.25826-.15281.16402-.52696-.625.0625-.78871.58973-.74485.67234-1.3438.59375-.59862-.0783-1.4264.15332-.90625-.65625.52016-.80927 1.2713-1.1858.71875-1.3438-.55229-.15802-1.8089.48964-1.9688.59375-.16003.10447-.57601.0459-.90625.1875-.32999.14149-.29981-.50312-.0937-.6875.20631-.18446.88366-.75159 1.75-1.2188.86635-.46716 3.0519-1.0137 3.5625-1.125.51061-.11126 1.2172-.10774 1.5625-.53125.34506-.42315 1.0533-1.1429 1.125-1.4375.0721-.29407.46875-.78125.46875-.78125s.41903-.73002.0937-.9375c-.32536-.20748-.70014-.7466-.90625-.5625-.2061.1841.0897.93309-.5.15625-.58959-.77622-.5543-.90999-.8125-1.0625s-.46209.0421-.4375-.9375c.0242-.97989-.0937-1.375-.0937-1.375s.0557-.84477-.125-.875c-.18093-.0304-.34128-.2322-.59375.0312-.25267.26384-1.6908 1.5676-2 1.8438-.3094.2762-.90977-.6479-.8125-1.1562.0974-.50899.0186-.18873-.3125-.8125-.33118-.62408-1.2531-.57422-1.5938-.5-.23421.0511-.72374-.15016-1.0625-.125zm-14.625 40.656c.0907.8827.21137 1.7553.34375 2.625.0824-.48108.31035-1.812.28125-2-.0313-.20225.13204-.30519-.25-.5-.11276-.0577-.23939-.10285-.375-.125zm2.2812 4.625c-.38873-.004-.80572.0555-1.125.125-.14425.0314-.29466.068-.4375.125.24146 1.2351.5202 2.4526.84375 3.6562.14552.0824.27368.17424.34375.4375.14008.52622.27086.43528.34375.90625.073.47155.30865.62094.5.71875.19075.0974.9375.65625.9375.65625h.875l.78125.46875.78125.0937-.5-.59375s-.23694-.36985-.53125-.375c-.2943-.005-1.0625-.71875-1.0625-.71875s-.33332-.21624-.40625-.6875c-.073-.47156-.42014-1.1548-.375-2 .0454-.84501-.0265-1.8678-.125-2.125-.0986-.25687.22011-.41071-.21875-.59375-.16466-.0685-.39176-.0915-.625-.0937zm10.844 1.5625c-.0954.0363.0156.50138-.1875 1.5-.26646 1.3117-.002.77441-.1875 1.0938-.18526.31874-.54536.60978-.53125-.4375.0139-1.0472-.0515-.29071-.78125-1.5938-.72975-1.303-.67355.93166-.84375.96875-.1702.0371-.84375.375-.84375.375s-.67669 1.672-1.125 2.1875c-.44831.51556-.51422.82072-.28125 1.1875.23301.3671.0365.89701.6875 1.3125.651.41519-.25002 1.0191-.15625 1.625.0938.6059-.46875 1.6562-.46875 1.6562l-.59375 1.8438s-.33652 1.2136-.625 1.625c-.28861.41054-.24125 1.1508.21875 1.4688.46012.31698.32397.57246.46875.75.0984.1205-.15989.43997-.375.6875 2.2248 3.6892 4.8668 7.0752 7.875 10.125.20492.12581.43828.27907.59375.375.58376.35963 1.0264.59238 1.5938.46875.5676-.12368.13132.58763.875.84375.44563.15313.38336.77788.34375 1.4688 4.2866 3.6649 9.1212 6.7062 14.406 8.9062.008-.0437.0151-.0768.0312-.15625.13338-.6557.2565-.37271.78125-1.5312.52444-1.1588.0577-.36943.0625-.71875.004-.34922.13536-.8725.0625-1.3438-.0729-.47095.40937-.91593.59375-2 .18429-1.0847.15328-1.2345-.3125-1.9688-.46568-.73364.6017-1.3712.875-1.5.2733-.12884 1.1479-.60126 1.8438-1.0312.69634-.43043.37577-.24066.9375-.78125.56178-.54029.40257.0548.46875-.65625.0659-.7109.1354-.65192.40625-2.3125.27124-1.6597.0636-.48443.0625-1.25-.00095-.76557-.0764-.76558-.0625-1.8125.0138-1.0475-.19096-1.5562-.15625-2.4688.0347-.91259.002.0181.0937-.90625.0915-.92463.0182-1.0576.15625-2.0625.13801-1.0047.20025-.33208.375-.71875.1751-.38611.1073-.71867.40625-1.0625.29853-.34311.52237-1.52.53125-2.2188.009-.69795-.2282-.34711-.1875-.84375.0408-.49604-.60643-.23476-.90625-.65625-.30022-.42235-.34617.1-.625-.1875-.27883-.28753-.71519.00091-.96875-.5-.25359-.50179-1.0182-.12968-1.9062-.5625-.88857-.43271-.43709.023-.96875 0-.53175-.0236-1.0483.22708-1.25.0625-.20166-.1645-.36193.65909-.71875.25-.35635-.40949-.31966-.14116-1.25-.84375-.93007-.70264-.44392-.19644-1.1562-.25-.40242-.0305-.48237.24325-.5.40625-.073-.47155-.0153-.016-.0312-.5-.0163-.48361-.003.003-.375-.125-.37192-.12774-.45019.17381-.6875.15625-.2374-.0182-.89457.53334-1.2812.6875-.38673.15387.43168-.51084.71875-1.6875.28734-1.1767-.26819-.98346-.71875-2-.45047-1.0159-.91705-.97252-1.625-1.375-.70778-.4032-.22785-.0866-.625 0-.39714.0866-.80996.15522-1.1562-.1875-.34643-.34205-.57969-.007-.8125-.375-.23267-.36654-.41265-.40304-1.2188-1.0625-.8064-.6597-1.1815-.49551-1.6562-.53125-.47477-.036-.62201-.15075-1.5312-.71875-.33204-.20732-.47776-.24471-.53125-.25.0418-.0169.13151-.0773.15625-.34375.066-.71032-1.2227.17954-2.2188.1875-.99605.008-.86098.52339-1.0938.15625-.23251-.36719-.36439-.25305-.90625-.34375-.54213-.0906-.69544-.13116-1.0312-.40625-.063-.0516-.095-.0892-.125-.0937-.008-.00096-.0248-.002-.0312 0zm87.531 4.3125c-.0554.77823-.5 2-.5 2l-1.0312.90625s-.34549.47687-.5625.59375c-.21657.11647-.71875.59375-.71875.59375s-.54497-.0376-.28125.53125c.26402.56911.43201 1.3172.40625 1.5312-.0249.21457.0418.61738.125 1.1562.0833.53857.0134 1.241-.25 1.4375-.2628.19675-.50471.4158-.375.875.12997.45913.34375 1.8438.34375 1.8438l.9375 1.1875s.20209-.2448.65625-.34375c.19513-.0425.38778-.17898.53125-.3125.22911-.35824.4353-.69874.65625-1.0625-.16647-.72682-.006-1.6551-.0937-1.8438-.0877-.18966.3437-1.2046.3125-1.4062-.0313-.20227.39596-1.2565.34375-1.5938-.0521-.3366.25572-.959.25-1.375-.006-.41688-.10295-1.3622-.0312-1.6562.0721-.29408.0731-.57445.0312-.84375l-.125-.8125-.625-1.4062z" transform="translate(-13.907911 -471.137437) scale(1.1259)"/>
  <path fill="url(#u)" d="M203.97 535.48s-2.447.59057-3.5667 1.1427c-1.146.56505-3.1503 2.1837-3.1503 2.1837l4.8312 9.7556s3.7465 3.9199 5.6553 2.9747c1.9087-.94524 1.0617-6.3011 1.0617-6.3011z" transform="translate(-13.907911 -471.137437) scale(1.1259)"/>
  <path fill="url(#v)" d="M-713.14-76.178s3.6348 8.6972 27.648 9.5339c22.263.77572 30.508-10.487 30.508-10.487z" filter="url(#w)" transform="translate(352.189733 169.274483) scale(.24589)"/>
  <path fill="#a2a6b4" d="M151.126511 18.797948c-23.1293637 11.4751728-39.0259458 35.3296161-39.0259458 62.8995294 0 38.7568557 31.4193654 70.1762211 70.1762211 70.1762211 10.88013465 0 21.6690714-2.48047029 30.8586672-6.90007815l-2.52798327-4.70243394c-7.53215841 2.77950933-16.2073305 4.31062074-24.7652964 4.31062074-37.26729 0-67.4796906-28.8996012-67.4796906-64.5444693 0-24.4252746 14.18634-45.6766371 35.1078138-56.6372736z" color="#000"/>
  <path fill="url(#x)" d="M146.97 435.05c-20.543 10.192-34.662 31.379-34.662 55.866 0 34.423 27.906 62.329 62.329 62.329 9.6635 0 19.246-2.2031 27.408-6.1285l-1.2421-2.3067c-7.6274 3.3716-16.418 5.2481-25.278 5.2481-33.465 0-60.596-26.76-60.596-59.77 0-23.227 13.432-43.352 33.051-53.245l-1.01-1.9928z" color="#000" opacity=".74" transform="translate(-13.907911 -471.137437) scale(1.1259)"/>
  <path fill="#fff" d="M-663.36-607.06s58.639 7.7638 84.943 20.224c32.169 15.239 60.781 38.578 84.943 64.718 16.332 17.669 39.101 60.673 39.101 60.673s-57.992-65.082-93.445-89.744c-35.119-24.431-115.54-55.872-115.54-55.872z" filter="url(#y)" opacity=".3" transform="translate(353.326892 173.24891) scale(.24589)"/>
  <path fill="url(#z)" d="M189.88 465.31c-.0394.001-.096.0215-.1875.0937-.36614.28856-.95212.48032-1.375.78125-.15856.11296-.0455.10569.0312.0937-.0348.009-.25084.0811-1.1875.375-2.1822.6843-2.75 1.0938-2.75 1.0938s-.19524-.11239-.4375.21875c-.24199.3311-.5716.83417-1 .71875-.42845-.11573-.67005-.0168-1 .125-.33025.14156-.5922-.20446-.9375.21875-.34535.42291-.7774.6603-.96875.5625-.19182-.0993-.5625-.5625-.5625-.5625l-.65625 1.5312-.46875.78125-1 1-.0937.65625s-.35912.61301-.25.9375c.10913.3245.1875.9375.1875.9375s-.63851 1.0627-.9375 1.4062c-.29898.34352-.65625 1.0312-.65625 1.0312s-.22562.48452-.375.65625c-.14941.17143-.36661.60876-.53125 1.0625-.16463.45374-.3553.77331-.4375 1s-.3507.78457-.40625 1.5625c-.0555.77824-.375 1.75-.375 1.75l-.0625.375c.2342 1.1327.26122 1.308.4375 1.6875.17598.37921.25943.22444.28125 1.125.022.89992.0822 1.2586.0312 1.6875-.051.42836-.28272 1.2319-.34375 1.5938-.0616.36139.375.90625.375.90625s.30121.83575.21875 1.0625c-.0822.22699.15625.59375.15625.59375s.76234.31117 1.0312.53125c.26863.21984.7245.52915.8125.71875.0883.18985.69327 1.0604.78125 1.25.088.1896.63647.82246.78125 1 .14477.17754.84375.78125.84375.78125s.85032.51756 1.0625.75c.21188.23221.73629.24133.9375.40625.20171.16483.58547.0344.84375.1875.25847.15247.65817-.30417.90625-.21875.24778.0853.81938-.29701.96875-.46875.14937-.17173.49736-.73354.8125-.59375.31489.13985.44987-.11156.6875-.0937.23711.0179.52306-.38805.75-.4375.22719-.0495.73606-.43166.90625-.46875.17047-.0371.67906-.57549.90625-.625.22669-.0494.47678-.38502.78125-.3125.30447.0725.11418-.3091.65625-.21875.54208.0903.70483-.1333.90625.0312.20176.16513.38187-.0759.59375.15625.21183.2319.52655.36778.625.625.0982.25728.5.4375.5.4375h.34375s.37631-.49492.53125-.25c.15515.24457.65625.0625.65625.0625l.625.5625.21875.21875s.49447 1.0211.5 1.4375c.006.41629.13896 1.2609 0 1.5-.1389.23934-.0937 1.1562-.0937 1.1562s-.18802.32245.40625.75c.5943.42785 1.0069.83061 1.2188 1.0625.21218.23245.77708.85349.90625 1.3125.12992.45883.27275.72456.59375 1.2812.32076.55675.62024.55729.78125 1.2188.16118.66079.2651.64168.28125 1.125.0163.48391-.12852.57549.0937.875.22235.29983.52497.84828.5 1.0625-.0255.21433 0 1.125 0 1.125l-.0312.4375-.34375 1.25-.25.6875c-.0406.49598-.19223.99509-.0312 1.6562.16072.66121-.18307.73819.375 1.3125.55842.57486.9035 1.2682 1.2812 1.8125.3777.54403.63101 1.1084.75 1.5.11955.39182.36568.48614.5625 1 .19662.5142.32286.78809.375 1.125.0521.33661.10477 1.1979.25 1.375.14447.1773.30784.77433.40625 1.0312.0984.25722-.13239.38392.28125.78125.4136.39702.68967.6188.96875.90625.27908.28748.19406.15934.4375.59375.24315.43417.5368.67129.65625 1.0625.11925.39157.31906 1.3781.5625 1.8125.24319.43448.53125.84375.53125.84375s.72098.33553.9375.21875c.21627-.11672.56562-.81493.9375-.6875.37192.12774.62258-.12569.90625-.1875.28368-.0618.49732-.53187.78125-.59375.28367-.0618.59542-.67913.84375-.59375.24773.0849.48692-.25777.71875-.65625.23188-.39818.38528-.69362.8125-1.3438.42748-.6502.36793-.65172.65625-1.0625.28852-.41114.49869-1.2163.875-1.4375.37631-.22119.43867-.73211.5-1.0938.0616-.3617.0587-.56826.1875-.875.12883-.30613.0704.063.21875-.875.14839-.93766.43514-1.3609.6875-1.625.25243-.26378.37151-.70779.53125-.8125.15973-.10471.48854.11272.28125-.46875-.20699-.58122-.23053-1.479-.375-1.6562-.14508-.17779-.21311.52285-.3125-.5-.0991-1.0223.375-2.1562.375-2.1562s.65358-1.4549.90625-1.7188c.25267-.26384.26907-.48752.625-.84375.35527-.35548 1.1146-1.2256 1.0625-1.5625-.0521-.33691.1563-1.2665.125-1.4688-.0313-.20197-.0846-.41084-.375-1.5312-.29085-1.1197-.024-.90297-.53125-1.9062-.50716-1.0033-.75247-2.3378-1.0312-2.625-.27933-.2874-.30212-1.1998-.34375-1.4688-.0417-.2693.24648-1.0061.375-1.3125.12849-.30667.6875-1.5625.6875-1.5625s.90472-1.7979 1.1875-2.625c.28271-.82774.5705-1.5751.8125-1.9062.24226-.33114.83204-1.084 1.125-1.8438.29321-.75981.8806-2.2225.90625-2.4375.0252-.21398.375-1 .375-1s.49048-1.004.53125-1.5c.0404-.49623.21764-3.2531.125-3.0938-.0921.15957-.75198.44567-.96875.5625-.21623.11702.38586.27559-1.2812.5-1.6665.22363-2.4688.75-2.4688.75-.532-.0236-.80863.71816-1.125-.1875-.31607-.90543-.52436-1.4006-.96875-2-.44491-.5993-.69785-.82917-1.3438-1.5938-.64606-.76391-.53547-.36355-1.0938-.9375-.55811-.57463-.64338-.37414-1.0625-1.1875-.41917-.81368-.5967-.42432-1.125-1.5625-.52834-1.1384-.7881-1.2076-1.0625-1.8438-.27465-.63607-.51127-.79388-.71875-1.375-.20729-.58147-2.017-3.3974-2.2188-3.5625-.20167-.16453-.65053-1.1899-.5625-1 .0404.0867.24989.23643.46875.375l-1.81-1.62c-.39939.0748-.82137.15298-1.3438.125-.76911-.0415-2.0888.6556-2.7188.375-.63012-.28025-1.3674.20947-1.7812-.1875-.41339-.39737-.94989-.18647-1.2188-.40625-.26861-.21984-.51051-.95245-.34375.125.16679 1.0778-.34493 1.2802-.375 1.8438-.0304.56337.2285.21252-.40625.28125-.63481.0685-.74821.51626-1.7812-.0937-1.0333-.61024-1.494-.512-2-.75-.50653-.2379-.78567.79075-1.4062-.1875-.62093-.97879-1.1203.0507-1.3125-.8125-.19227-.86342-.12958-.82376-.15625-1.375-.0262-.55135.53369-1.1411.21875-1.2812-.23638-.10507-.1943-.34688-.3125-.34375zm34.438 39.75c-.0554.77823-.5 2-.5 2l-1.0312.90625s-.34549.47687-.5625.59375c-.21657.11647-.71875.59375-.71875.59375s-.54497-.0376-.28125.53125c.26402.56911.43201 1.3172.40625 1.5312-.0249.21457.0418.61738.125 1.1562.0833.53857.0134 1.241-.25 1.4375-.2628.19675-.50471.4158-.375.875.12997.45913.34375 1.8438.34375 1.8438l.9375 1.1875s.20209-.2448.65625-.34375c.19513-.0425.38778-.17898.53125-.3125.22911-.35824.4353-.69874.65625-1.0625-.16647-.72682-.006-1.6551-.0937-1.8438-.0877-.18966.3437-1.2046.3125-1.4062-.0313-.20227.39596-1.2565.34375-1.5938-.0521-.3366.25572-.959.25-1.375-.006-.41688-.10295-1.3622-.0312-1.6562.0721-.29408.0731-.57445.0312-.84375l-.125-.8125-.625-1.4062z" transform="translate(-13.907911 -471.137437) scale(1.1259)"/>
  <path fill="url(#A)" d="M190.59 436.12c-.0463.0529-.10595.0916-.15625.15625-.58751.75466-1.0566 1.1486-1.4375 1.7188-.38095.57016-1.4302 1.7451-1.7188 2.1562-.28857.41085-1.2928 1.7585-1.3438 2.1875-.0509.42896.22495.7255-.1875 1.0938-.41246.36825-.8885.4522-1.2188.59375-.16512.0708-.17605-.0798-.1875-.15625-.0131.014-.0511.0788-.125.3125-.23618.7477.23721 3.1487.46875 2.75.23153-.39873-.0925-1.4571 1.3125-.71875 1.405.73773 2.1611.45102 2.25 1.4062.0891.95517 1.0115.69746 1.1562.875.14467.17694.625-.4375.625-.4375s1.1042-1.2162 1.0312-1.6875c-.073-.47155.5625-1.7188.5625-1.7188s-.61453-.20147-.71875-.875c-.1042-.67321.0223-.92681.0312-1.625.009-.69794-.62972.15108.875-1.5 1.5043-1.6504 1.7812-.8125 1.7812-.8125s.25243.22175.0312.6875c-.22112.46604-.56358 1.6534-.65625 1.8125-.0928.15972.68533 1.093.96875 1.0312.28393-.0618.80517-.43059 1.1562-.4375.35113-.007.90271-.41006 1.0938-.3125.19129.0975.63804.41372.40625.8125-.23157.39842-.77558.94174-1.25.90625-.47518-.0353-1.3246-.85419-.71875.40625.60587 1.2604.19484 1.7118-.15625 1.7188-.35058.007-1.1761-.51664-.90625.46875.27001.98507-.4858 1.8691-.65625 1.9062-.17046.0371-.5.0312-.5.0312s-.52908.032-.8125.0937c-.28394.0618-.80902.53708-.9375.84375-.12878.30643-.37257.15694-.65625.21875-.28367.0619-.0678-.39529-.65625-.40625-.58818-.011-.95127-.0935-1.25.25-.29899.34352-.80404.58996-1.0625.4375-.25819-.15252.006-.6814-.40625-.3125-.4122.3682-.62151 1.1766-.78125 1.2812-.01.007.004.027 0 .0312-.0449.0151-.0654.0334-.15625.0625-.67061.21603-.93012.47893-1.25.6875-.31977.20918.27017.93841-.3125 1.3438-.58266.40533-.21917-.3045-.75.4375-.53048.74254-.56498 1.2895-.78125 1.4062-.21672.11713-.1558.25885-.65625.4375-.50044.17864-.41374.2145-.6875.34375-.27326.12913.0827.1864-.5625.1875-.64542.001-1.0614.38043-.90625.625.15514.24456 2.3808.53354.78125.8125-1.5995.27894-1.0384.49239-.65625.6875.38234.19505.60032.43827.78125.46875.18087.0302.5625.78125.5625.78125s.46069-.15837.25.375c-.2107.53337.19013.58193 0 1.25-.18985.66801-.2314.2534-.4375.4375-.20616.18379-.50035.73687-1.1875.46875-.6869-.26819-1.1578-.37506-1.9062-.28125-.74827.0932-.24977-.14473-.6875.4375-.43785.58317-.46326 1.1253-.3125 1.7188.1505.59353.32664 1.4024.21875 1.8438-.10769.44103-.0507.82472.15625 1.4062.2075.58111.59375.78125.59375.78125s.81933-.0307 1 0c.18063.0302.49407-.23736 1 0 .50627.23794.96639.2473 1.1875-.21875.22117-.46575 1.2841-1.178 1.5625-1.6562.27785-.47841.48277-.66411.25-1.0312-.23277-.36715.12258-1.4862.375-1.75.25242-.26378.84375-.59375.84375-.59375l.5-1.3438s.45586-.88081.75-.875c.2941.005 1.9675.31958 1.7188-.53125-.249-.85105-.0349-1.1433.1875-.84375.2223.29953.65625.0625.65625.0625s.2048-.1962.40625-.0312c.20143.16458.53437.99756.90625 1.125.37197.12803.68952.25891.9375.34375.24782.0854.47289-.0913 1 .28125.52686.37266 1.0061.56064 1.0938.75.0884.1895.5625.5625.5625.5625s.4155.0494.34375.34375c-.0718.29402-.51811 1.21-.78125 1.4062-.26308.19652-1.0129.10468-.6875.3125.3251.20753.76734.45811.90625.21875.13857-.23802.9922-1.7983 1-1.8125-.0133.003-.0582-.0314-.0625-.34375-.005-.41606-.12768-.8901.1875-.75.31498.14045.52195.38773.59375.0937.0718-.29431.22142-.20364-.0937-.34375-.31524-.14038-1.1802-1.1319-1.5312-1.125-.35112.007-1.3125-.46875-1.3125-.46875s-.20675-.17302-.6875-.625c-.48079-.45227-.56304-.30328-.75-.75-.18614-.44658-.61416-.9673.0312-.96875.64543-.001 1.1198.3757 1.75.65625.63016.28054.52058.45704 1.0938.75.57318.29297.70727.68506 1.0938.53125.38673-.15387.87493.0813.96875.6875.0938.6062.33439 1.2335.46875 1.3438.1346.11016.50085.318.65625.5625.15515.24457.47588.8615.6875 1.0938.21213.23214.4339.41893.65625.71875.22231.29953.21516-.12914.40625-.0312.19129.0974.41668-.012.375-.28125-.0417-.26929-.0625-.75-.0625-.75s.74783-.44576.5-.53125c-.24802-.0851-1.0466-.74954-1.0312-1.0312.0151-.28165-.13759-.81807.15625-.8125.2943.005.6778.54991 1.2188-.125.54093-.67493 1.2271-1.1077 1.125-.25-.10161.85756.20295.92425.28125 1.8125.0791.8881.31088.5838.78125.96875.47012.38502.78927.36497 1.0938.4375.3048.073.75395-.0933 1.2188-.125.46456-.0316.70673-.36085 1.125-.3125.41774.0481 1.2774-.34781 1.4688-.25.19129.0974.80808-.45897.9375 0 .12971.45918.2847-.11454.28125 1-.003 1.1145-.125 1.9062-.125 1.9062-.40545 1.5504-.57024 1.9333-.84375 2.0625-.273.12907-.41647.36231-.9375.40625-.24263.0203-.52302.10451-.8125.15625l1.625 1.25.0937.0625c.048.0412.0896.0786.15625.125.29763.20717.71875.4375.71875.4375s.42329-.27536.59375-.3125c.1702-.0371.95837.54351 1 .8125.0417.26959 1.4457 1.3064 1.875 2.1875.42959.88099.87084 1.4617.96875 1.7188.0979.25704.83525 1.2078 1.125 1.5625.28925.35483 1.1365.9955 1.3125 1.375.17604.37951 1.4583 1.4995 1.5938 2.375s.83883 1.9306.9375 2.1875c.0986.25687 1.1562.34375 1.1562.34375l1.3125-.6875s1.8041-1.9817 2.0312-2.0312c.22669-.0494 1.875-1.4688 1.875-1.4688s.62483-.97998 1.0625-1.5625c.43791-.58288.8864-1.5707.9375-2 .0507-.42891.23376-.5446.59375-1.25.36035-.70516.89719-1.4323.4375-1.75-.45993-.31733-.6409-.13761-1.3125-.6875-.67179-.54954-.62329-.42956-1.1562-1.2188-.5328-.78858-.2111-1.9147-.90625-.71875-.69467 1.1956-.33605 1.3931-1.1562 1.7812-.81981.38711-1.0299 1.1495-1.5312.5625-.50139-.58699-.83494-.10158-1.2188-1.0625-.38328-.96068-.56855-.98368-.6875-1.375-.11905-.39193-.077-.43229-.6875-1.3438-.61021-.91123-.51286-2.5324-.0937-1.7188.41943.81362.91812.86712 1.75 1.3125.83132.44517 1.215.83103 1.9062.75.69145-.0814 1.272-.26587 1.4062-.15625.13437.11022.1953-.10368.5-.0312.30484.073.3655-.29476.5625.21875.19687.51415.8517.44395 1.1875.71875.33599.27474.30365.12024 1.0625.0937.75895-.0258 1.7812-.21875 1.7812-.21875l.63-.17c-6.57-15.87-20.43-27.92-37.41-32.04z" transform="translate(-13.907911 -471.137437) scale(1.1259)"/>
  <path fill="url(#B)" d="M125.94 499.19c-.38873-.004-.80572.0555-1.125.125-.14425.0314-.29466.068-.4375.125.24146 1.2351.5202 2.4526.84375 3.6562.14552.0824.27368.17424.34375.4375.14008.52622.27086.43528.34375.90625.073.47155.30865.62094.5.71875.19075.0974.9375.65625.9375.65625h.875l.78125.46875.78125.0937-.5-.59375s-.23694-.36985-.53125-.375c-.2943-.005-1.0625-.71875-1.0625-.71875s-.33332-.21624-.40625-.6875c-.073-.47156-.42014-1.1548-.375-2 .0454-.84501-.0265-1.8678-.125-2.125-.0986-.25687.22011-.41071-.21875-.59375-.16466-.0685-.39176-.0915-.625-.0937zm10.844 1.5625c-.0954.0363.0156.50138-.1875 1.5-.26646 1.3117-.002.77441-.1875 1.0938-.18526.31874-.54536.60978-.53125-.4375.0139-1.0472-.0515-.29071-.78125-1.5938-.72975-1.303-.67355.93166-.84375.96875-.1702.0371-.84375.375-.84375.375s-.67669 1.672-1.125 2.1875c-.44831.51556-.51422.82072-.28125 1.1875.23301.3671.0365.89701.6875 1.3125.651.41519-.25002 1.0191-.15625 1.625.0938.6059-.46875 1.6562-.46875 1.6562l-.59375 1.8438s-.33652 1.2136-.625 1.625c-.28861.41054-.24125 1.1508.21875 1.4688.46012.31698.32397.57246.46875.75.0984.1205-.15989.43997-.375.6875 2.2248 3.6892 4.8668 7.0752 7.875 10.125.20492.12581.43828.27907.59375.375.58376.35963 1.0264.59238 1.5938.46875.5676-.12368.13132.58763.875.84375.44563.15313.38336.77788.34375 1.4688 4.2866 3.6649 9.1212 6.7062 14.406 8.9062.008-.0437.0151-.0768.0312-.15625.13338-.6557.2565-.37271.78125-1.5312.52444-1.1588.0577-.36943.0625-.71875.004-.34922.13536-.8725.0625-1.3438-.0729-.47095.40937-.91593.59375-2 .18429-1.0847.15328-1.2345-.3125-1.9688-.46568-.73364.6017-1.3712.875-1.5.2733-.12884 1.1479-.60126 1.8438-1.0312.69634-.43043.37577-.24066.9375-.78125.56178-.54029.40257.0548.46875-.65625.0659-.7109.1354-.65192.40625-2.3125.27124-1.6597.0636-.48443.0625-1.25-.00095-.76557-.0764-.76558-.0625-1.8125.0138-1.0475-.19096-1.5562-.15625-2.4688.0347-.91259.002.0181.0937-.90625.0915-.92463.0182-1.0576.15625-2.0625.13801-1.0047.20025-.33208.375-.71875.1751-.38611.1073-.71867.40625-1.0625.29853-.34311.52237-1.52.53125-2.2188.009-.69795-.2282-.34711-.1875-.84375.0408-.49604-.60643-.23476-.90625-.65625-.30022-.42235-.34617.1-.625-.1875-.27883-.28753-.71519.00091-.96875-.5-.25359-.50179-1.0182-.12968-1.9062-.5625-.88857-.43271-.43709.023-.96875 0-.53175-.0236-1.0483.22708-1.25.0625-.20166-.1645-.36193.65909-.71875.25-.35635-.40949-.31966-.14116-1.25-.84375-.93007-.70264-.44392-.19644-1.1562-.25-.40242-.0305-.48237.24325-.5.40625-.073-.47155-.0153-.016-.0312-.5-.0163-.48361-.003.003-.375-.125-.37192-.12774-.45019.17381-.6875.15625-.2374-.0182-.89457.53334-1.2812.6875-.38673.15387.43168-.51084.71875-1.6875.28734-1.1767-.26819-.98346-.71875-2-.45047-1.0159-.91705-.97252-1.625-1.375-.70778-.4032-.22785-.0866-.625 0-.39714.0866-.80996.15522-1.1562-.1875-.34643-.34205-.57969-.007-.8125-.375-.23267-.36654-.41265-.40304-1.2188-1.0625-.8064-.6597-1.1815-.49551-1.6562-.53125-.47477-.036-.62201-.15075-1.5312-.71875-.33204-.20732-.47776-.24471-.53125-.25.0418-.0169.13151-.0773.15625-.34375.066-.71032-1.2227.17954-2.2188.1875-.99605.008-.86098.52339-1.0938.15625-.23251-.36719-.36439-.25305-.90625-.34375-.54213-.0906-.69544-.13116-1.0312-.40625-.063-.0516-.095-.0892-.125-.0937-.008-.00096-.0248-.002-.0312 0z" transform="translate(-13.907911 -471.137437) scale(1.1259)"/>
  <path fill="url(#C)" d="M144.31 446.12c-.81553.6356-1.6284 1.2898-2.4062 1.9688.35079.66898.55476 1.1505.40625 1.4062-.20827.3587-.22663.69885-1.0312 1.1875-.80436.4886-1.0805.96888-.40625 1.3438.67401.37522 1.8487.65162 2.4062.84375.55772.19148 2.1101-.0632 1.1875-.90625-.92263-.84315-.0312-1.3438-.0312-1.3438s1.6514.99798.90625-.40625c-.74536-1.4039-1.0907-1.332-.75-1.4062.34067-.0743 1.0938.28125 1.0938.28125l.21875-.875-.53125-1.25-1.0625-.84375zm-6.0312 7.7812v.0312c-.15399.0114-.29231.0456-.34375.1875-.16444.45339-1.1684 2.003-1.375 2.1875-.20606.18439-.74661-1.0309-.59375 1.0938.15271 2.1253 1.0434 2.5738.15625 2.9062-.88718.33252-1.5625 1.0938-1.5625 1.0938s-.7396.24267-.65625.78125c.0835.53917.008 1.8848-.3125 2.0938-.31953.20911-1.2163.18616-1.5625-.15625-.34624-.34243-.25-1.9062-.25-1.9062l.4375-.71875s-.68271.0275-1.4062.0312c-4.3956 7.5094-7.0693 16.159-7.4062 25.406.018-.0502.043-.0653.0625-.125.31859-.97474.71874-1.3582.75-1.1562.0313.20227.73027-.20849.875-.0312.14472.17723.32156-.22394.78125.0937.45997.31763 1.0255.25471 1 .46875-.0255.21432.2812.17273.3125.375.0529-.037.19134-.29732.34375.6875.18764 1.2124.5625 1.875.5625 1.875s.5486.92685.6875.6875c.13895-.23905.40625-.84375.40625-.84375s.52227-.54719-.0937-1.875c-.61625-1.3275-.4073-1.7719-.59375-2.2188-.1867-.44678-.24355-.71444.34375-1.4688.5873-.75431 2.0505-2.4566 2.4062-2.8125.35547-.35584 1.125-1.3125 1.125-1.3125s.30766-.26121.28125-.8125c-.0267-.55095.9222-1.7495.9375-2.0312.0153-.28169.65625-1.0938.65625-1.0938s.70253-.70731.59375-1.0312c-.10883-.32425.86104-1.1817 1.0312-1.2188.1702-.0371 1.1251.10618 1.0312-.5-.0938-.60591-.10925-.74398.375-1.4062.48401-.6622 1.1223-1.6256 1.4062-1.6875.28368-.0618 1.155-.87227 1.5312-1.0938.37651-.22154 1.5101-1.1808.5-.125-1.0102 1.0552-.34604.43328-.46875 1.1562-.1225.72261-.1721 1.6204.75.375.92214-1.2451.83172-1.4401 1.2188-1.5938.38698-.15392.16962.17866.96875-.34375.79944-.52217.8125-.65625.8125-.65625s.35219-.50409.0937-.65625c-.25826-.15281.16402-.52696-.625.0625-.78871.58973-.74485.67234-1.3438.59375-.59862-.0783-1.4264.15332-.90625-.65625.52016-.80927 1.2713-1.1858.71875-1.3438-.55229-.15802-1.8089.48964-1.9688.59375-.16003.10447-.57601.0459-.90625.1875-.32999.14149-.29981-.50312-.0937-.6875.20631-.18446.88366-.75159 1.75-1.2188.86635-.46716 3.0519-1.0137 3.5625-1.125.51061-.11126 1.2172-.10774 1.5625-.53125.34506-.42315 1.0533-1.1429 1.125-1.4375.0721-.29407.46875-.78125.46875-.78125s.41903-.73002.0937-.9375c-.32536-.20748-.70014-.7466-.90625-.5625-.2061.1841.0897.93309-.5.15625-.58959-.77622-.5543-.90999-.8125-1.0625s-.46209.0421-.4375-.9375c.0242-.97989-.0937-1.375-.0937-1.375s.0557-.84477-.125-.875c-.18093-.0304-.34128-.2322-.59375.0312-.25267.26384-1.6908 1.5676-2 1.8438-.3094.2762-.90977-.6479-.8125-1.1562.0974-.50899.0186-.18873-.3125-.8125-.33118-.62408-1.2531-.57422-1.5938-.5-.23421.0511-.72374-.15016-1.0625-.125z" transform="translate(-13.907911 -471.137437) scale(1.1259)"/>
  <path fill="#003380" d="M145.05 448.7c-11.955 9.4074-19.635 23.999-19.635 40.392 0 28.376 23 51.376 51.376 51.376 15.503 0 29.407-6.859 38.827-17.716-8.7377 6.8729-19.761 10.984-31.741 10.984-28.376 0-51.376-23.03-51.376-51.405 0-12.869 4.7305-24.616 12.549-33.63z" color="#000" filter="url(#D)" opacity=".40244" transform="translate(-13.907911 -471.137437) scale(1.1259)"/>
  <path fill="none" stroke="#00aad4" stroke-width=".21124" d="M247.43390057 79.37577135c0 33.81340417-27.41067861 61.22408279-61.22408278 61.22408279s-61.2240828-27.41067862-61.2240828-61.22408279 27.41067862-61.22408279 61.2240828-61.22408279 61.22408278 27.41067861 61.22408278 61.22408279z" color="#000"/>
  <path fill-rule="evenodd" d="M283.62 311.78c-6.2603.11509-23.231 8.0155-46.25 21.25-23.019 13.235-32.094 25.78-36.781 28.188-4.6872 2.4074-27.958 13.67-30.531 15.031-.9648.51038-1.9837.84916-2.875 1.0625-.59417.14223-1.1424.24162-1.5625.28125-.63017.0595-.98581.0114-.90625-.0937l-2.4375-1.1875s-14.66-24.329-17.875-29.406c-3.2147-5.0773-7.25-10.531-7.25-10.531l-5.125 4.7188 1.25-.15625 9.8125 32.062-.0312.0312.4375 1.25 4 13.125s-2.1034 1.0528-2.7812 3.4062c-.47048 1.6336-.32897 2.5456-.1875 2.9688-10.484 1.2846-58.227 7.1376-59.438 7.625-1.3451.54159.5 1 .5 1l61.625-4.3438c.41148.35728.70323.63033 1.7188 1.4688l-86.5 15.719-78.375 15.469-3.3125.9375c-1.12.15462-2.0334.27017-2.5938.40625-.9921.24092-6.9375-7.7812-6.9375-7.7812.0408.0591 3.2077 6.6049 4.2812 8 .71717.93203 1.4472 1.5351 2.0625 1.5.31013-.0177 3.1526-.88932 3.5-.9375.93422-.12957 38.446-5.2202 70.094-9.5312l-.0938.0625.9375 2.75c-2.6336 2.3932-4.0837 5.9606-3.5625 9.7188.84429 6.0876 6.5197 10.355 12.688 9.5 6.1678-.85542 10.501-6.5062 9.6562-12.594-.75729-5.4603-5.4111-9.4186-10.812-9.5625l-.8125-.96875c3.2299-.43996 3.5275-.48579 6.8438-.9375l-.90625.9375s.50612 2.0432 2.5 2.1875c1.9939.14431 2.7323.0485 3.9375-.75.94004-.62277 1.0074-2.2517 1-3.25 11.217-1.5279 11.658-1.5787 22.781-3.0938l-.46875.5s.58986 2.4398 2.875 2.625c2.2851.18517 3.1558.0376 4.5312-.90625.91947-.63102 1.0715-2.1365 1.0938-3.3125 9.6807-1.3185 11.936-1.6318 20.375-2.7812l6.75 3.1875.125-.0625c-1.5546 1.6541-2.9337 3.4968-3.375 4.6562-1.0458 2.7479-.72264 3.4456-.21875 5.6875 1.175 5.2278 15.653 9.1993 22 3.9688 5.9189-4.8774 4.75-10.062 4.75-10.062.21141.0691.16079-2.5107-1.2812-4.8438-1.5694-2.5392-4.7-4.3843-7.9375-4.8125l-.8125-.4375c5.404-.73598 13.637-1.873 17.094-2.3438.0259.17582.67107 4.2061 3.9062 4.875 3.0594.63267 3.9592-.16194 5.6875-.875 8.255 2.012 17.797 1.7887 21.906 1.2188 4.4336-.6149 81.672-19.382 90.156-21.562 4.2126-1.0829 8.8758-2.8224 13.656-5.4062-.0994.27452-.20481.53832-.25.78125-.4315 2.3193.0967 4.2776.0625 4.0312.99786 5.3848 9.9311 6.394 13.906 6.0938 3.9752-.30027 9.3305-1.2915 11.938-2.4062.66522-.28444 1.4928-.7893 2.3125-1.5 2.3504-1.4843 3.9734-4.0347 4.375-6.9688 2.1394.63028 4.7014.81264 7.4062.4375.30093-.0417.61315-.0705.90625-.125.3222-.004.66333-.0109.9375-.0312 3.5084-.25978 8.233-1.157 10.531-2.1562 1.1094-.48232 2.6901-1.6622 3.875-3.5 1.5718-1.8036 2.4161-4.232 2.0625-6.7812-.20525-1.4799-.78802-2.819-1.625-3.9375-2.2554-3.9969-7.0615-4.0488-9.5-4.0938-1.3034-.024-2.931.28591-4.6562.8125l-3.375-1.3438 22.469-5.625s1.3436-.36282 0-1c-1.3436-.63719-8.7188-7.625-8.7188-7.625l2.125 8.0938-31.531 6c4.5963-6.5004 7.675-12.702 8.3438-14.906.15235-.50209.26982-1.1094.34375-1.7812.33629-1.2761.0589-6.1635-.21875-6.125 0 0-.16651.0278-.1875.0312-.41626-1.8286-1.1326-3.6541-2.1875-5.2188.005.00007.0625 0 .0625 0 .82948.15432-4.8617-5.8323-7.625-6.9062-2.1866-.84986-2.125-.9375-2.125-.9375s-.0618.0311-.0625.0312c-.62196-.42141-1.2007-.81962-1.8438-1.25-6.9185-4.6303-14.656-9.5312-14.656-9.5312l-4.75-3.375s-4.5834-4.1463-10.844-4.0312zm32.875 58.812c1.7957.7007 7.115 2.6713 11.125 3.125-.65002.76459-1.208 1.5345-1.5938 2.25-.47235.35559-.92956.70937-1.3125 1.0938-.0115-.009-.0198-.0222-.0312-.0312-.20544-.15733-.4093-.30239-.625-.4375-.0827-.0549-.16573-.10402-.25-.15625-.13361-.0774-.26979-.14885-.40625-.21875-1.098-.60766-2.2953-1.0167-3.5625-1.125-1.4738-.23445-2.853-.23483-3.875-.25-1.3841-.0205-3.0873.29021-4.9062.8125 1.5638-1.5157 3.0399-3.1376 4.4375-4.8125l1-.25zm-184.5 41.72c1.2014.54932 2.0924.92182 2.4375 1.0625-.33801.18682-.68183.39803-.96875.59375-.22956.15659-.44705.33954-.6875.53125l-3.0938-1.875c.89918-.12246 1.4381-.19341 2.3125-.3125zm-75.656 10.281.9375.84375c-.53291.11252-1.0322.25566-1.5312.4375l-.625-1.125c.56294-.0767.65211-.0791 1.2188-.15625z" filter="url(#E)" opacity=".5" transform="translate(26.8530467 -125.936497) scale(.5275)"/>
  <g transform="translate(-51.47641843 -139.79093213) scale(.5275)">
    <path fill="url(#F)" fill-rule="evenodd" d="M473.91 407.64c.89633 4.8656 8.7813 5.8134 12.29 5.5536 3.5084-.25978 8.2592-1.1455 10.557-2.1447 2.2982-.99918 6.617-5.0004 5.2564-11.616-1.3606-6.6157-7.5698-6.6618-10.457-6.715s-7.3281 1.47-11.024 3.5703c-3.6962 2.1003-6.307 5.6378-6.6813 7.7311-.37428 2.0932.09 3.8434.0591 3.6208z"/>
    <path fill="url(#G)" fill-rule="evenodd" d="m481.71 391.49 6.0082 2.3621s-6.0769 2.263-7.7804 5.3396c-1.7036 3.0766-16.003-2.7511-16.003-2.7511l7.0736-2.7562 10.702-2.1943z"/>
    <path fill="url(#H)" d="M483.58 398.63c-6.6623.924-12.847 5.1185-12.291 9.1294.55629 4.011 6.4174 6.5348 13.08 5.6108 2.745-.38071 5.1761-1.3072 7.0755-2.519-4.7301-1.2231-.55387-1.052-1.1484-5.3388-.15464-1.115-7.8472-5.6908-7.6029-6.7595-.11813.015 1.0056-.13946.88673-.12298z" opacity=".70303"/>
    <path fill="url(#I)" fill-rule="evenodd" d="M444.42 417.69c.99786 5.3848 9.9263 6.4059 13.901 6.1057 3.9752-.30027 9.3599-1.2981 11.967-2.4129 2.607-1.1147 7.5134-5.561 5.996-12.882-1.5175-7.3211-8.5509-7.3498-11.821-7.3984-3.2704-.0485-8.3064 1.6541-12.501 3.9932-4.1945 2.3391-7.1647 6.2657-7.5962 8.5851-.4315 2.3193.0881 4.2557.0539 4.0093z"/>
    <path fill="url(#J)" fill-rule="evenodd" d="m462.46 397.49 43.551-10.907s1.3294-.37057-.0142-1.0078c-1.3436-.63719-8.7137-7.6185-8.7137-7.6185l2.1237 8.0716-36.565 6.9712-.38143 4.4904z"/>
    <path fill="url(#K)" d="M458.62 422.27c-6.6623.92399-12.523-1.5998-13.08-5.6108-.55629-4.011 4.3968-8.0346 11.059-8.9586 2.7451-.38071 5.3365-.15077 7.494.49835-4.2187 2.4642-6.7748 6.5874-6.1803 10.874.15464 1.115.52587 2.1872 1.0518 3.1492-.11775.0177-.22602.0313-.34484.0478z" opacity=".70303"/>
    <path fill="url(#L)" d="M457.84 407.53c-6.6623.92399-12.847 5.1185-12.291 9.1294.55629 4.011 6.4174 6.5348 13.08 5.6108 2.7451-.38072 5.1761-1.3072 7.0755-2.519-4.7301-1.2231-.55387-1.052-1.1484-5.3388-.15464-1.115-7.8472-5.6908-7.6029-6.7595-.11813.015 1.0056-.13946.88673-.12298z" opacity=".70303"/>
    <use xlink:href="#M" transform="matrix(1.2444 -.17259 .1849 1.3332 -492.57 119.73)"/>
    <path d="M476.0001762 410.0482444c.60372893 4.35310208-1.93950778 8.3026307-5.68044976 8.82147496s-7.26302555-2.589464-7.86675448-6.94256608 1.93950778-8.3026307 5.68044976-8.82147496 7.26302555 2.589464 7.86675448 6.94256608z"/>
    <use xlink:href="#M" transform="matrix(1.1504 -.15955 .15882 1.1452 -389.84 159.7)"/>
    <path d="M501.7769582 400.8103188c.51859869 3.73918208-1.86454935 7.15924022-5.32288349 7.63887545s-6.6823044-2.1627735-7.20090308-5.90195558 1.86454934-7.15924022 5.32288349-7.63887546 6.6823044 2.16277351 7.20090308 5.90195559z"/>
    <path fill="#fff5ff" fill-opacity=".97386" fill-rule="evenodd" d="m313.2 403.76-2.4218-1.1704s-14.671-24.326-17.886-29.403c-3.2147-5.0773-7.2366-10.545-7.2366-10.545l-5.1186 4.7268 1.2316-.17081 14.229 46.48s-2.1143 1.0464-2.7921 3.3999c-.67781 2.3535-.0485 3.2704-.0485 3.2704l1.7098 3.2776s13.456 11.942 22.096 14.509c8.6408 2.5674 19.403 2.33 23.837 1.7151 4.4336-.6149 81.668-19.36 90.153-21.541 8.4843-2.1809 18.844-7.1324 28.164-15.957 9.3203-8.8242 16.055-21.809 17.089-25.216 1.0338-3.407.43325-11.357-4.1227-15.244-4.5559-3.8871-24.374-16.453-24.374-16.453l-4.7339-3.3603s-4.5901-4.1334-10.85-4.0183c-6.2603.11509-23.243 7.9936-46.262 21.228-23.019 13.235-32.073 25.788-36.76 28.195-4.6872 2.4074-27.979 13.671-30.552 15.032-2.5728 1.361-5.5627 1.5246-5.3506 1.2442z"/>
    <path fill="url(#N)" fill-rule="evenodd" d="m313.2 403.76-2.4218-1.1704s-14.671-24.326-17.886-29.403c-3.2147-5.0773-7.2366-10.545-7.2366-10.545l-5.1186 4.7268 1.2316-.17081 14.229 46.48s-2.1143 1.0464-2.7921 3.3999c-.67781 2.3535-.0485 3.2704-.0485 3.2704l1.7098 3.2776s13.348 11.803 22.048 14.161c8.176 2.2158 19.391 2.3211 23.837 1.7151 4.435-.60525 81.717-19.012 90.201-21.193 8.4843-2.1809 18.844-7.1324 28.164-15.957 9.3203-8.8242 16.055-21.809 17.089-25.216 1.0338-3.407.43325-11.357-4.1227-15.244-4.5559-3.8871-24.374-16.453-24.374-16.453l-4.7339-3.3603s-4.5901-4.1334-10.85-4.0183c-6.2603.11509-23.243 7.9936-46.262 21.228-23.019 13.235-32.073 25.788-36.76 28.195-4.6872 2.4074-27.979 13.671-30.552 15.032-2.5728 1.361-5.5627 1.5246-5.3506 1.2442z"/>
    <path fill="#1a60b6" fill-opacity=".90196" fill-rule="evenodd" d="m298.8 424.83 4.2556-.0881s52.242-21.555 82.601-32.544c30.36-10.989 61.39-22.573 74.554-25.403s13.81-2.7421 13.81-2.7421c.82948.15432-4.8534-5.8298-7.6167-6.9038-2.1866-.84986-2.1413-.95828-2.1413-.95828s-25.946 6.611-53.206 16.417c-27.26 9.8059-103.9 45.54-107.49 46.791-3.5922 1.2514-8.7307 2.2151-8.7307 2.2151l-1.1632.66344s.66345 1.1632 1.717 1.5192c1.0536.35598 3.4412 1.2801 3.407 1.0338z"/>
    <path fill="url(#O)" fill-rule="evenodd" d="m464.27 356.63-16.742-10.637s-9.2438-7.7715-14.691-7.371c-5.4476.40048-10.026 1.9516-18.773 6.7152-8.7479 4.7637-32.349 16.352-37.289 20.41-4.9403 4.0581-6.1404 5.6447-6.1404 5.6447s37.706-19.964 46.966-22.313c9.2602-2.3494 9.4455-3.5506 15.182-3.1707 8.9659.59372 21.431 7.1587 29.224 11.036l2.2642-.31404z"/>
    <path fill="none" d="m313.2 403.76-2.4218-1.1704s-14.671-24.326-17.886-29.403c-3.2147-5.0773-7.2366-10.545-7.2366-10.545l-5.1186 4.7268 1.2316-.17081 14.229 46.48s-2.1143 1.0464-2.7921 3.3999c-.67781 2.3535-.0485 3.2704-.0485 3.2704l1.7098 3.2776s13.456 11.942 22.096 14.509c8.6408 2.5674 19.403 2.33 23.837 1.7151 4.4336-.6149 81.668-19.36 90.153-21.541 8.4843-2.1809 18.844-7.1324 28.164-15.957 9.3203-8.8242 16.055-21.809 17.089-25.216 1.0338-3.407.43325-11.357-4.1227-15.244-4.5559-3.8871-24.374-16.453-24.374-16.453l-4.7339-3.3603s-4.5901-4.1334-10.85-4.0183c-6.2603.11509-23.243 7.9936-46.262 21.228-23.019 13.235-32.073 25.788-36.76 28.195-4.6872 2.4074-27.979 13.671-30.552 15.032-2.5728 1.361-5.5627 1.5246-5.3506 1.2442z"/>
    <path fill="#8a1511" fill-rule="evenodd" d="M476.37 375.66c.5932-.0823.29661-6.4645-.0207-6.4205 0 0-24.536 3.9938-63.838 17.478-39.302 13.485-95.834 34.882-95.834 34.882l5.6994-.53939 7.5674-1.5516s62.19-20.425 79.48-26.086c17.291-5.6617 40.356-13.129 51.372-15.158 11.016-2.0299 16.033-2.9184 15.574-2.6038z"/>
    <path fill="url(#P)" fill-rule="evenodd" d="M385.66 417.61s-2.7928-3.0546-9.1653-5.3479-10.721-3.2788-16.775-1.38c-6.0544 1.8987-16.728 6.5561-16.728 6.5561l-10.607 7.0311s24.619 4.7931 30.926 4.7127c6.3066-.0804 12.361-1.9791 16.794-4.1824 4.4327-2.2034 5.8083-5.5712 5.8083-5.5712l-.25219-1.8183z"/>
    <path fill="url(#Q)" fill-rule="evenodd" d="m362.52 415.49-33.923 5.2069s-174.46 32.732-186.43 35.145c-7.9563 1.6042-13.56 2.018-15.528 2.4959-.9921.24092-6.9226-7.7925-6.9226-7.7925.0408.0591 3.2082 6.6008 4.2817 7.996.71717.93203 1.4451 1.5329 2.0604 1.4978.31013-.0177 3.1577-.89474 3.5051-.94292 2.7095-.37578 203.28-27.691 203.28-27.691s14.491-.50348 18.186-1.0159c3.6947-.51242 8.416-2.6735 9.8256-3.3711s6.3772-2.8929 7.438-4.2952c1.0608-1.4024 2.2995-3.3315-.9637-5.1384s-4.5973-2.375-4.8094-2.0946z"/>
    <path fill="#e8ebeb" fill-rule="evenodd" d="m369.96 420.24-243.94 38.602 6.5377-1.8519 78.387-15.473 115.86-21.067 36.208-5.0217 5.0216 1.8141 1.3952 2.8191.52678.17799z"/>
    <path fill="#28393f" fill-rule="evenodd" d="m447.67 346.07-18.405 3.0547.3191-4.9398s6.5822-1.415 8.9221-1.7395c2.34-.32453 3.3252-.46118 3.3252-.46118l5.8387 4.0857zm-24.33 5.63 5.4603-2.2636.19595-4.9227-3.8556 1.1624-2.4982 4.6144.69759 1.4096z"/>
    <rect width="2.2918" height="3.8118" x="395.03" y="490.43" fill="#10181a" opacity=".97636" rx="1.1397" ry=".63589" transform="matrix(.95496 -.29675 .13738 .99052 0 0)"/>
    <rect width="2.2918" height="3.8118" x="391.51" y="490.43" fill="#10181a" opacity=".97636" rx="1.1397" ry=".63589" transform="matrix(.95496 -.29675 .13738 .99052 0 0)"/>
    <rect width="2.2918" height="3.8118" x="387.99" y="490.43" fill="#10181a" opacity=".97636" rx="1.1397" ry=".63589" transform="matrix(.95496 -.29675 .13738 .99052 0 0)"/>
    <rect width="2.2918" height="3.8118" x="384.47" y="490.43" fill="#10181a" opacity=".97636" rx="1.1397" ry=".63589" transform="matrix(.95496 -.29675 .13738 .99052 0 0)"/>
    <rect width="2.2918" height="3.8118" x="380.95" y="490.43" fill="#10181a" opacity=".97636" rx="1.1397" ry=".63589" transform="matrix(.95496 -.29675 .13738 .99052 0 0)"/>
    <rect width="2.2918" height="3.8118" x="377.43" y="490.43" fill="#10181a" opacity=".97636" rx="1.1397" ry=".63589" transform="matrix(.95496 -.29675 .13738 .99052 0 0)"/>
    <rect width="2.2918" height="3.8118" x="373.91" y="490.43" fill="#10181a" opacity=".97636" rx="1.1397" ry=".63589" transform="matrix(.95496 -.29675 .13738 .99052 0 0)"/>
    <rect width="2.2918" height="3.8118" x="370.39" y="490.43" fill="#10181a" opacity=".97636" rx="1.1397" ry=".63589" transform="matrix(.95496 -.29675 .13738 .99052 0 0)"/>
    <rect width="2.2918" height="3.8118" x="366.87" y="490.43" fill="#10181a" opacity=".97636" rx="1.1397" ry=".63589" transform="matrix(.95496 -.29675 .13738 .99052 0 0)"/>
    <rect width="2.2918" height="3.8118" x="363.35" y="490.43" fill="#10181a" opacity=".97636" rx="1.1397" ry=".63589" transform="matrix(.95496 -.29675 .13738 .99052 0 0)"/>
    <rect width="2.2918" height="3.8118" x="359.83" y="490.43" fill="#10181a" opacity=".97636" rx="1.1397" ry=".63589" transform="matrix(.95496 -.29675 .13738 .99052 0 0)"/>
    <rect width="2.2918" height="3.8118" x="356.31" y="490.43" fill="#10181a" opacity=".97636" rx="1.1397" ry=".63589" transform="matrix(.95496 -.29675 .13738 .99052 0 0)"/>
    <rect width="2.2918" height="3.8118" x="352.79" y="490.43" fill="#10181a" opacity=".97636" rx="1.1397" ry=".63589" transform="matrix(.95496 -.29675 .13738 .99052 0 0)"/>
    <rect width="2.2918" height="3.8118" x="349.27" y="490.43" fill="#10181a" opacity=".97636" rx="1.1397" ry=".63589" transform="matrix(.95496 -.29675 .13738 .99052 0 0)"/>
    <rect width="2.2918" height="3.8118" x="345.75" y="490.43" fill="#10181a" opacity=".97636" rx="1.1397" ry=".63589" transform="matrix(.95496 -.29675 .13738 .99052 0 0)"/>
    <rect width="2.2918" height="3.8118" x="342.23" y="490.43" fill="#10181a" opacity=".97636" rx="1.1397" ry=".63589" transform="matrix(.95496 -.29675 .13738 .99052 0 0)"/>
    <rect width="2.2918" height="3.8118" x="338.71" y="490.43" fill="#10181a" opacity=".97636" rx="1.1397" ry=".63589" transform="matrix(.95496 -.29675 .13738 .99052 0 0)"/>
    <rect width="2.2918" height="3.8118" x="335.19" y="490.43" fill="#10181a" opacity=".97636" rx="1.1397" ry=".63589" transform="matrix(.95496 -.29675 .13738 .99052 0 0)"/>
    <rect width="2.2918" height="3.8118" x="331.67" y="490.43" fill="#10181a" opacity=".97636" rx="1.1397" ry=".63589" transform="matrix(.95496 -.29675 .13738 .99052 0 0)"/>
    <path fill="url(#R)" fill-rule="evenodd" d="m209.19 450.32-4.5146-5.3991-3.4142.72457 6.0266 5.4404 1.9022-.76591z"/>
    <path fill="url(#S)" fill-rule="evenodd" d="m293.42 437.63-11.404-6.201s-5.3919 2.7562-6.2406 3.8781c-.8486 1.1219 7.5252 4.4795 7.5252 4.4795l10.12-2.1566z"/>
    <path fill="url(#T)" fill-rule="evenodd" d="M302.26 447.07s1.1653 5.1963-4.7536 10.074c-6.3473 5.2305-20.841 1.2519-22.016-3.976-.50389-2.2419-.82923-2.9308.21661-5.6787.71314-1.8737 3.8675-5.6315 6.272-7.2717 2.5229-1.7209 7.2154-3.1849 10.65-2.8578 3.3784.32172 6.6982 2.2255 8.3324 4.8696 1.442 2.3331 1.5104 4.91 1.299 4.8409z"/>
    <path fill="url(#U)" fill-rule="evenodd" d="m281.71 441.01-2.7508 1.8878-8.5994-4.0794 4.2287-2.0928 7.1216 4.2844z"/>
    <path fill="url(#V)" d="M601.87 320.26c0 3.2052-2.6983 5.8036-6.0268 5.8036s-6.0268-2.5984-6.0268-5.8036 2.6983-5.8036 6.0268-5.8036 6.0268 2.5983 6.0268 5.8036z" transform="matrix(1.4304 -.19839 .22515 1.6234 -631.51 45.987)"/>
    <path d="M301.1873766 446.6751838c.57071791 4.11515628-2.30251927 7.91389256-6.41754382 8.48459717s-7.91360395-2.30273063-8.48432186-6.41788691 2.30251927-7.91389256 6.41754382-8.48459717 7.91358614 2.30260224 8.48432186 6.41788691z"/>
    <path fill="#b0b3b3" fill-rule="evenodd" d="m201.26 454.68 3.8457-3.0439-2.6537-4.653-2.8946 2.6609 1.7026 5.036z"/>
    <path fill="url(#W)" d="M601.87 320.26c0 3.2052-2.6983 5.8036-6.0268 5.8036s-6.0268-2.5984-6.0268-5.8036 2.6983-5.8036 6.0268-5.8036 6.0268 2.5983 6.0268 5.8036z" transform="matrix(1.853 -.257 .26341 1.8993 -980.38 5.4535)"/>
    <path fill="url(#X)" d="M601.87 320.26c0 3.2052-2.6983 5.8036-6.0268 5.8036s-6.0268-2.5984-6.0268-5.8036 2.6983-5.8036 6.0268-5.8036 6.0268 2.5983 6.0268 5.8036z" transform="matrix(1.4239 -.19748 .20749 1.4961 -705.72 98.593)"/>
    <path d="M215.9620354 459.1240957c.52353737 3.77508456-2.112182 7.25989569-5.88703386 7.78343545s-7.25941653-2.11244015-7.7829539-5.8875247 2.112182-7.2598957 5.88703386-7.78343546 7.2594002 2.11232237 7.7829539 5.88752471z"/>
    <path fill="url(#Y)" fill-rule="evenodd" d="M243.35 444.07s.58793 2.429 2.8731 2.6142c2.2851.18517 3.1472.0656 4.5226-.8783 1.3754-.94392 1.0886-3.9168 1.1093-4.6728.0207-.75602-.60501-2.5521-.60501-2.5521l-3.3082.58436-4.5918 4.9047z"/>
    <path fill="url(#Z)" fill-rule="evenodd" d="M213.58 448.49s.50151 2.0346 2.4954 2.179c1.9939.14431 2.747.0399 3.9522-.75855 1.2052-.79842.96919-3.2907.99087-3.925.0217-.63427-.51582-2.1379-.51582-2.1379l-2.8906.50607-4.032 4.1364z"/>
    <path fill="url(#aa)" fill-rule="evenodd" d="M309.31 434.58s.58972 4.242 3.8964 4.9257c3.3062.68372 4.0687-.2638 6.1054-1.0153 2.0367-.75155 2.4008-4.533 2.4642-5.3618.0635-.82883-.76453-2.9396-.76453-2.9396l-4.8241-.0504-6.8774 4.4414z"/>
    <path fill="#2e6dbb" fill-rule="evenodd" d="m291.12 397.53 10.439-7.0964-3.8952-6.3637-8.4169 7.1926 1.8734 6.2675z"/>
    <path fill="#801d22" fill-rule="evenodd" d="m291.55 399.29 10.729-7.2623 1.5903 2.4155-11.356 7.7257-.96415-2.8789zm1.41 4.26 12.16-7.5741 1.7433 2.3821-12.871 8.0559-1.033-2.8639z"/>
    <path fill="#bac3c4" fill-rule="evenodd" d="m296.32 424.3-62.236 4.371s-1.8383-.45511-.49328-.9967 65.933-8.4342 65.933-8.4342l5.9218-.82129-9.1255 5.8812z"/>
    <rect width="1.8596" height="2.9174" x="364.68" y="514.15" fill="#10181a" opacity=".97636" rx="1.1207" ry=".63589" transform="matrix(.91034 -.41386 .13738 .99052 0 0)"/>
    <rect width="1.8596" height="2.9174" x="361.82" y="514.15" fill="#10181a" opacity=".97636" rx="1.1207" ry=".63589" transform="matrix(.91034 -.41386 .13738 .99052 0 0)"/>
    <rect width="1.8596" height="2.9174" x="358.96" y="514.15" fill="#10181a" opacity=".97636" rx="1.1207" ry=".63589" transform="matrix(.91034 -.41386 .13738 .99052 0 0)"/>
    <rect width="1.8596" height="2.9174" x="356.11" y="514.15" fill="#10181a" opacity=".97636" rx="1.1207" ry=".63589" transform="matrix(.91034 -.41386 .13738 .99052 0 0)"/>
    <rect width="1.8596" height="2.9174" x="353.25" y="514.15" fill="#10181a" opacity=".97636" rx="1.1207" ry=".63589" transform="matrix(.91034 -.41386 .13738 .99052 0 0)"/>
    <rect width="1.8596" height="2.9174" x="350.39" y="514.15" fill="#10181a" opacity=".97636" rx="1.1207" ry=".63589" transform="matrix(.91034 -.41386 .13738 .99052 0 0)"/>
    <rect width="1.8596" height="2.9174" x="347.54" y="514.15" fill="#10181a" opacity=".97636" rx="1.1207" ry=".63589" transform="matrix(.91034 -.41386 .13738 .99052 0 0)"/>
    <rect width="1.8596" height="2.9174" x="344.68" y="514.15" fill="#10181a" opacity=".97636" rx="1.1207" ry=".63589" transform="matrix(.91034 -.41386 .13738 .99052 0 0)"/>
    <rect width="1.8648" height="2.891" x="345.94" y="540.24" fill="#10181a" opacity=".97636" rx="1.1157" ry=".63589" transform="matrix(.87883 -.47713 .13738 .99052 0 0)"/>
    <rect width="1.8648" height="2.891" x="343.08" y="540.24" fill="#10181a" opacity=".97636" rx="1.1157" ry=".63589" transform="matrix(.87883 -.47713 .13738 .99052 0 0)"/>
    <rect width="1.8648" height="2.891" x="340.21" y="540.24" fill="#10181a" opacity=".97636" rx="1.1157" ry=".63589" transform="matrix(.87883 -.47713 .13738 .99052 0 0)"/>
    <rect width="1.8648" height="2.891" x="337.35" y="540.24" fill="#10181a" opacity=".97636" rx="1.1157" ry=".63589" transform="matrix(.87883 -.47713 .13738 .99052 0 0)"/>
    <rect width="1.8648" height="2.891" x="334.48" y="540.24" fill="#10181a" opacity=".97636" rx="1.1157" ry=".63589" transform="matrix(.87883 -.47713 .13738 .99052 0 0)"/>
    <path fill="url(#ab)" fill-rule="evenodd" d="M310.3 404.17c-.0966-.69669-12.749-20.244-12.749-20.244l-12.031-19.545-2.9374 3.7803 13.02 42.042 14.696-6.0324z"/>
    <path fill="url(#ac)" fill-rule="evenodd" d="M310.3 404.17c-.0966-.69669-12.749-20.244-12.749-20.244l-12.016-20.08-3.7307 3.1802 13.799 43.176 14.696-6.0324z"/>
  </g>
  <use xlink:href="#ad" color="#000" filter="url(#c)" opacity=".5" style="block-progression:tb;text-indent:0;text-transform:none" transform="matrix(.731 0 0 .731 -390.791677 -637.185169)"/>
  <use xlink:href="#ad" color="#000" filter="url(#c)" opacity=".5" style="block-progression:tb;text-indent:0;text-transform:none" transform="rotate(-8.343 -3792.6775645 2940.66461441) scale(.70532)"/>
</svg>