<?xml version="1.0" encoding="UTF-8"?>
<svg width="220mm" height="31.41mm" version="1.1" viewBox="0 0 220 31.41" xml:space="preserve" xmlns="http://www.w3.org/2000/svg"><title>Daily Driver</title><g transform="translate(-.26268 -4.1648)"><path d="m194.35 4.6733c-17.853-0.08916-52.512 0.55312-53.306 0.70684-3.8061 0.73655-9.677 8.1068-22.283 4.5914-2.0667-0.57635-4.7823-2.1025-6.4576-1.6991-2.2179 0.70108-2.2179 22.493 0 23.195 1.6753 0.40342 4.3909-1.1228 6.4576-1.6991 12.606-3.5154 18.477 3.8548 22.283 4.5914 0.79431 0.15372 35.453 0.79599 53.306 0.70684 5.9512-0.02972 10.035-0.14066 10.375-0.37812 3.5002-2.69 4.9595-8.823 5.0346-14.818-0.0751-5.9952-1.5344-12.128-5.0346-14.818-0.34019-0.23746-4.424-0.34841-10.375-0.37812zm-83.792 12.905c-6.6947 0.03769-88.961 0.21471-90.312 0.02776-1.7995-0.24895-3.6022-1.7501-5.3574-2.1605-0.47483-0.11104-1.1252-0.15294-1.9512-0.12577h4e-6c-2.478 0.08152-6.5362 0.78498-12.175 2.1103 0.010594 1.6199 0.009418 3.253 3.98e-6 4.8797 5.6386 1.3253 9.6968 2.0288 12.175 2.1103 0.826 0.02717 1.4763-0.01473 1.9512-0.12577 1.7552-0.41047 3.5579-1.9116 5.3574-2.1605 1.3514-0.18694 83.617-0.0099 90.312 0.02777" style="fill:none;stroke:#eae"/></g><path d="m152.03 5.0203q4.3021 0 6.5887 2.0025t2.2867 5.7748q0 3.036-1.279 5.3873-1.279 2.3384-3.7078 3.6949-2.4288 1.3436-5.4389 1.3436h-7.4672l3.5398-18.203zm-4.638 15.257h2.9714q2.067 0 3.669-0.89142 1.589-0.8785 2.4417-2.5451 0.86558-1.6666 0.86558-3.8757 0-2.4417-1.3694-3.7207-1.3565-1.279-3.9145-1.279h-2.2738zm25.787 3.0747q-1.2919 0-1.9895-0.5426-0.69764-0.5426-0.69764-1.434 0-0.43925 0.0646-0.82682h-0.0775q-1.0852 1.6795-2.1446 2.3125-1.0594 0.62012-2.5838 0.62012-1.8087 0-2.8939-1.0723-1.0723-1.0852-1.0723-2.7776 0-2.39 1.6407-3.6044 1.6536-1.2273 5.3485-1.2919l2.4675-0.03876q0.2713-1.2273 0.2713-1.6924 0-1.6536-1.6407-1.6536-1.2144 0-1.8087 0.47801-0.59428 0.46509-0.81391 1.3565l-3.3977-0.40049q0.89142-3.7982 6.0849-3.7982 2.6743 0 3.9145 0.94309 1.2532 0.94309 1.2532 2.868 0 0.47801-0.31006 2.0283l-0.91725 4.5604q-0.10336 0.62012-0.10336 0.93017 0 0.52968 0.36174 0.68471 0.36173 0.15503 0.65887 0.15503 0.42633 0 0.80099-0.09043l-0.18087 2.0025q-0.5426 0.2067-1.0981 0.24546-0.55553 0.03876-1.1369 0.03876zm-7.6869-4.3279q0 0.90434 0.50384 1.4211 0.51676 0.50384 1.3823 0.50384 1.0335 0 1.8862-0.77515 0.91726-0.8139 1.2919-2.2608l0.28422-1.1886h-2.0929q-1.5632 0.03876-2.403 0.63304-0.85266 0.59428-0.85266 1.6666zm18.681-14.973-0.52968 2.6743h-3.6303l0.52968-2.6743zm-1.0077 5.1935-2.7259 13.978h-3.6174l2.713-13.978zm8.3587-5.1935-3.7336 19.172h-3.6174l3.7207-19.172zm0.68471 24.663q-1.2402 0-2.235-0.23254l0.49092-2.5321q0.52968 0.11627 1.124 0.11627 1.0077 0 1.7699-0.59428 0.77514-0.59428 1.5374-1.9379l0.36173-0.62012-2.7388-13.668h3.7594l0.91726 6.4208q0.0517 0.38757 0.12919 1.0206 0.0775 0.63304 0.14211 1.3177 0.0775 0.67179 0.12919 1.2273 0.0517 0.5426 0.0517 0.74931 0.0646-0.12919 0.11627-0.24546 0.0517-0.11627 0.10335-0.23254l1.7958-3.7853 3.346-6.4725h3.8757l-8.4491 14.715q-1.3953 2.1833-2.2479 3.036-0.86558 0.8785-1.8216 1.2919-0.95602 0.42633-2.1575 0.42633z" style="fill-opacity:.7;fill:#aaf;stroke-width:.265;stroke:#eee" aria-label="Daily"/></svg>
