<?xml version="1.0" encoding="UTF-8"?>
<svg enable-background="new 0 0 209.104 167.858" version="1.1" viewBox="0 0 575 410" xml:space="preserve" xmlns="http://www.w3.org/2000/svg">
<g transform="translate(85.384 13.229)">
	<g fill="#00bce4">
		<path d="m74.145 145.9c-0.568 0.568-0.841 1.228-0.841 2.03v0.339h5.744v-0.339c0-1.601-1.273-2.87-2.872-2.872-0.804 1e-3 -1.463 0.275-2.031 0.842zm-0.841 8.365c0 0.876 0.729 1.605 1.605 1.605h6.334c1.357 0 2.195 0.838 2.195 2.194 0 1.357-0.838 2.195-2.195 2.195h-6.334c-1.657 0-3.101-0.58-4.265-1.73-1.15-1.163-1.731-2.607-1.731-4.265v-6.334c0-4.041 3.221-7.261 7.262-7.263 2.019 0 3.752 0.705 5.148 2.115 1.41 1.396 2.114 3.13 2.114 5.147v4.729h-10.133z"/>
		<path d="m99.738 140.66c1.662 0 3.094 0.584 4.246 1.75 1.166 1.153 1.749 2.584 1.75 4.246v11.4c0 1.357-0.838 2.195-2.195 2.195s-2.195-0.838-2.195-2.195v-11.4c0-0.922-0.684-1.604-1.605-1.605h-1.604v13.006c0 1.357-0.838 2.195-2.195 2.195s-2.195-0.838-2.195-2.195v-13.006h-3.21v13.006c0 1.357-0.838 2.195-2.195 2.195s-2.195-0.838-2.195-2.195v-15.202c0-1.357 0.838-2.195 2.195-2.195z"/>
		<path d="m123.31 154.26c0 3.37-2.625 5.995-5.995 5.995h-6.334c-1.356 0-2.194-0.838-2.194-2.195v-22.802c0-1.356 0.838-2.195 2.194-2.195 1.357 0 2.195 0.839 2.195 2.195v5.405h4.139c3.472 0 5.993 2.658 5.995 5.995zm-10.134-9.206v10.812h4.139c0.903 0 1.604-0.701 1.604-1.605v-7.601c0-0.927-0.678-1.604-1.605-1.605h-4.138z"/>
		<path d="m130.9 145.9c-0.568 0.568-0.842 1.228-0.842 2.03v0.339h5.744v-0.339c0-1.601-1.273-2.87-2.872-2.872-0.803 1e-3 -1.461 0.275-2.03 0.842zm-0.841 8.365c0 0.876 0.729 1.605 1.605 1.605h6.334c1.357 0 2.195 0.838 2.195 2.194 0 1.357-0.838 2.195-2.195 2.195h-6.334c-1.657 0-3.102-0.58-4.266-1.73-1.148-1.163-1.73-2.607-1.73-4.265v-6.334c0-4.041 3.221-7.261 7.263-7.263 2.019 0 3.752 0.705 5.147 2.115 1.41 1.396 2.115 3.13 2.115 5.147v4.729h-10.135v1.607z"/>
		<path d="m143.69 143.65c1.129-1.972 2.906-2.98 5.201-2.981h4.139v-5.405c0-1.356 0.838-2.195 2.195-2.195s2.195 0.839 2.195 2.195v22.802c0 1.357-0.838 2.195-2.195 2.195h-6.334c-1.657 0-3.102-0.58-4.266-1.73-1.149-1.163-1.73-2.607-1.73-4.265v-7.601c1e-3 -1.08 0.264-2.089 0.795-3.015zm4.053 1.886c-0.307 0.309-0.457 0.665-0.457 1.129v7.601c0 0.878 0.727 1.605 1.605 1.605h4.139v-10.812h-4.139c-0.456 1e-3 -0.822 0.152-1.148 0.477z"/>
		<path d="m160.92 143.65c1.129-1.972 2.905-2.98 5.201-2.981h4.139v-5.405c0-1.356 0.838-2.195 2.195-2.195 1.356 0 2.195 0.839 2.195 2.195v22.802c0 1.357-0.839 2.195-2.195 2.195h-6.334c-1.657 0-3.102-0.58-4.266-1.73-1.149-1.163-1.73-2.607-1.73-4.265v-7.601c0-1.08 0.264-2.089 0.795-3.015zm4.053 1.886c-0.308 0.309-0.457 0.665-0.457 1.129v7.601c0 0.878 0.727 1.605 1.605 1.605h4.139v-10.812h-4.139c-0.457 1e-3 -0.822 0.152-1.148 0.477z"/>
		<path d="m182.58 145.9c-0.568 0.568-0.842 1.228-0.842 2.03v0.339h5.743l1e-3 -0.339c0-1.601-1.273-2.87-2.873-2.872-0.802 1e-3 -1.462 0.275-2.029 0.842zm-0.842 8.365c0 0.876 0.729 1.605 1.605 1.605h6.333c1.357 0 2.195 0.838 2.195 2.194 0 1.357-0.838 2.195-2.195 2.195h-6.333c-1.658 0-3.102-0.58-4.266-1.73-1.149-1.163-1.73-2.607-1.73-4.265v-6.334c0-4.041 3.221-7.261 7.262-7.263 2.019 0 3.752 0.705 5.148 2.115 1.41 1.396 2.114 3.13 2.114 5.147v4.729h-10.134v1.607z"/>
		<path d="m195.37 143.65c1.129-1.972 2.905-2.98 5.2-2.981h4.139v-5.405c0-1.356 0.839-2.195 2.195-2.195 1.357 0 2.195 0.839 2.195 2.195v22.802c0 1.357-0.838 2.195-2.195 2.195h-6.333c-1.658 0-3.102-0.58-4.266-1.73-1.149-1.163-1.73-2.607-1.73-4.265v-7.601c0-1.079 0.264-2.089 0.795-3.015zm4.053 1.886c-0.308 0.309-0.457 0.665-0.457 1.129v7.601c0 0.878 0.727 1.605 1.605 1.605h4.138v-10.812h-4.138c-0.457 1e-3 -0.822 0.152-1.148 0.477z"/>
	</g>
	<g fill="#5c6f7b">
		<path d="m19.423 140.66h6.333c1.662 0 3.094 0.584 4.246 1.75 1.167 1.153 1.75 2.585 1.75 4.246v7.601c0 1.651-0.587 3.082-1.748 4.244-1.152 1.167-2.586 1.751-4.248 1.751h-4.138v5.406c0 1.357-0.838 2.195-2.195 2.195s-2.195-0.839-2.195-2.195v-22.803c0-1.357 0.838-2.195 2.195-2.195zm2.196 15.202h4.138c0.903 0 1.605-0.701 1.605-1.605v-7.601c0-0.928-0.679-1.604-1.605-1.605h-4.138z"/>
		<path d="m39.688 145.9c-0.569 0.568-0.841 1.228-0.841 2.03v0.339h5.743v-0.339c0-1.601-1.272-2.87-2.872-2.872-0.803 1e-3 -1.462 0.275-2.03 0.842zm-0.841 8.365c0 0.876 0.729 1.605 1.605 1.605h6.333c1.357 0 2.195 0.838 2.195 2.194 0 1.357-0.838 2.195-2.195 2.195h-6.333c-1.657 0-3.101-0.58-4.265-1.73-1.15-1.163-1.73-2.607-1.73-4.265v-6.334c0-4.041 3.22-7.261 7.262-7.263 2.018 0 3.752 0.705 5.147 2.115 1.411 1.396 2.115 3.13 2.115 5.147v4.729h-10.134z"/>
		<path d="m51.685 142.86c0-1.357 0.838-2.195 2.195-2.195h6.334c1.662 0 3.094 0.584 4.246 1.75 1.167 1.153 1.749 2.584 1.75 4.246v11.4c0 1.357-0.838 2.195-2.195 2.195s-2.195-0.838-2.195-2.195v-11.4c0-0.922-0.684-1.604-1.605-1.605h-4.138v13.006c0 1.357-0.838 2.195-2.195 2.195s-2.195-0.838-2.195-2.195v-15.202z"/>
		<path d="m10.134 147.93c0-1.601-1.273-2.87-2.872-2.872-1.599 0-2.872 1.273-2.872 2.872v5.067c0 0.824 0.267 1.485 0.822 2.049 0.564 0.555 1.226 0.823 2.05 0.823 1.601 0 2.871-1.273 2.872-2.873zm-10.134 0c0-4.041 3.22-7.261 7.262-7.263 2.019 0 3.752 0.705 5.148 2.115 1.411 1.396 2.114 3.13 2.114 5.147v5.067c0 4.041-3.222 7.262-7.262 7.262-1.997 0-3.732-0.713-5.147-2.114-1.402-1.415-2.115-3.151-2.115-5.147z" clip-rule="evenodd" fill-rule="evenodd"/>
	</g>
	
		<path d="m25.428 79.124c0-43.7 35.425-79.124 79.124-79.124s79.123 35.424 79.123 79.124c0 14.938-4.139 28.909-11.333 40.828h-26.366c10.352-10.5 16.738-24.918 16.738-40.828 0-32.123-26.039-58.163-58.162-58.163s-58.163 26.04-58.163 58.163c0 15.91 6.388 30.328 16.738 40.828h-26.366c-7.193-11.92-11.333-25.89-11.333-40.828z" clip-rule="evenodd" fill="#5c6f7b" fill-rule="evenodd"/>
	
	
		<path d="m94.122 79.124c0-2.882 1.168-5.491 3.059-7.379l17.436-17.494c-9.682-3.913-21.184-1.944-29.033 5.905-10.476 10.476-10.476 27.461 0 37.937 10.476 10.477 27.461 10.477 37.938 0 4.547-4.547 7.12-10.321 7.721-16.256l18.46-18.461c5.838 16.774 2.056 36.151-11.345 49.553-18.67 18.67-48.939 18.67-67.609 0s-18.67-48.938 0-67.608c18.669-18.67 48.939-18.67 67.609 0 2.535 2.536 4.728 5.287 6.574 8.193l-32.986 32.997c-1.888 1.89-4.511 3.045-7.393 3.045-5.762-2e-3 -10.431-4.672-10.431-10.432z" fill="#00bce4"/>
	
</g>
<style type="text/css">
	.st0{fill:#1DCAD3;}
	.st1{fill:#36B0C9;}
	.st2{fill:#231F20;}
	.st3{fill:#FFFFFF;}
	.st4{fill:#9164CC;}
	.st5{clip-path:url(#SVGID_2_);fill:url(#SVGID_3_);}
	.st6{fill:#201747;}
	.st7{fill-rule:evenodd;clip-rule:evenodd;fill:#10CFC9;}
	.st8{clip-path:url(#SVGID_5_);fill:#231F20;}
	.st9{fill-rule:evenodd;clip-rule:evenodd;fill:#231F20;}
	.st10{clip-path:url(#SVGID_7_);fill:#FFFFFF;}
	.st11{fill-rule:evenodd;clip-rule:evenodd;fill:#FFFFFF;}
	.st12{fill:#8CCEAF;}
	.st13{fill:#008476;}
	.st14{fill:#25BCBD;}
	.st15{fill:#004D70;}
	.st16{fill:#20BBBB;}
	.st17{fill:#024D70;}
	.st18{fill-rule:evenodd;clip-rule:evenodd;fill:#F58B1F;}
	.st19{fill-rule:evenodd;clip-rule:evenodd;fill:#18335B;}
	.st20{clip-path:url(#SVGID_9_);}
	.st21{clip-path:url(#SVGID_11_);}
	.st22{fill:#18335B;}
	.st23{fill:#F58B1F;}
	.st24{clip-path:url(#SVGID_15_);}
	.st25{clip-path:url(#SVGID_17_);}
	.st26{clip-path:url(#SVGID_21_);}
	.st27{clip-path:url(#SVGID_23_);}
	.st28{clip-path:url(#SVGID_27_);}
	.st29{clip-path:url(#SVGID_29_);}
	.st30{clip-path:url(#SVGID_33_);}
	.st31{clip-path:url(#SVGID_35_);}
	.st32{clip-path:url(#SVGID_39_);}
	.st33{clip-path:url(#SVGID_41_);}
	.st34{fill:#416BA9;}
	.st35{fill:#73C3D5;}
	.st36{opacity:0.8;}
	.st37{fill:#3A3A3A;}
	.st38{fill:url(#SVGID_44_);}
	.st39{fill:none;stroke:#000000;stroke-width:6.3384;}
	.st40{fill:none;stroke:#000000;stroke-width:3.1692;}
	.st41{fill:#48494B;}
	.st42{fill:#C1986C;}
	.st43{fill:url(#SVGID_63_);}
	.st44{fill:url(#SVGID_64_);}
	.st45{fill:url(#SVGID_65_);}
	.st46{fill:url(#SVGID_66_);}
	.st47{fill:url(#SVGID_67_);}
	.st48{fill:#4D4E4E;}
	.st49{fill:#27B373;}
	.st50{fill:#5DC4CD;}
	.st51{fill:#1E8756;}
	.st52{fill:#3D1152;}
	.st53{fill:#922C48;}
	.st54{fill-rule:evenodd;clip-rule:evenodd;fill:#922C48;}
	.st55{fill:#404041;}
	.st56{fill:#EC1C24;}
	.st57{fill:#373A36;}
	.st58{fill:#808184;}
	.st59{fill:#262261;}
	.st60{fill:#6FCBDC;}
	.st61{fill:#2F3436;}
	.st62{fill:#5F97D0;}
	.st63{fill:#132428;}
	.st64{fill:#85C041;}
	.st65{fill:#677784;}
	.st66{fill:url(#SVGID_68_);}
	.st67{opacity:0.2;clip-path:url(#SVGID_70_);}
	.st68{fill:#FFFEFA;}
	.st69{opacity:0.1;}
	.st70{fill:url(#SVGID_71_);}
	.st71{opacity:0.3;}
	.st72{opacity:0.08;}
	.st73{opacity:0.1;fill:url(#Wordmark_1_);}
	.st74{fill:url(#SVGID_104_);}
	.st75{opacity:0.6;fill:url(#SVGID_107_);}
	.st76{opacity:0.4;}
	.st77{fill:url(#SVGID_110_);}
	.st78{opacity:0.6;fill:url(#SVGID_113_);}
	.st79{fill:url(#SVGID_116_);}
	.st80{opacity:0.6;fill:url(#SVGID_119_);}
	.st81{fill:url(#SVGID_122_);}
	.st82{opacity:0.6;fill:url(#SVGID_125_);}
	.st83{fill:url(#SVGID_128_);}
	.st84{opacity:0.6;fill:url(#SVGID_131_);}
	.st85{fill:#221F1F;}
	.st86{fill:none;}
	.st87{fill:#00416B;}
	.st88{opacity:0.8;fill:url(#XMLID_323_);}
	.st89{fill:#4197CB;}
	.st90{fill:#003E52;}
	.st91{fill:#3F96B4;}
	.st92{fill:#B9DBE5;}
	.st93{opacity:0.3;fill:#231F20;}
	.st94{opacity:0.3;fill:#FFFFFF;}
	.st95{fill:#050013;}
	.st96{fill:#E87200;}
	.st97{fill:#FCB813;}
	.st98{fill:#3D3935;}
	.st99{fill:#FFB600;}
	.st100{fill:#FCB814;}
	.st101{fill:#F48120;}
	.st102{fill:#EF4E25;}
	.st103{fill:#ED3024;}
	.st104{fill:#E0592A;}
	.st105{fill:#00ADBB;}
	.st106{fill:#00829B;}
	.st107{fill:#93D500;}
	.st108{fill:#4D5A31;}
	.st109{fill:#6BA43A;}
	.st110{fill:#424143;}
	.st111{fill-rule:evenodd;clip-rule:evenodd;fill:#C7E6B4;}
	.st112{fill-rule:evenodd;clip-rule:evenodd;fill:#5A9891;}
	.st113{fill-rule:evenodd;clip-rule:evenodd;fill:#127870;}
	.st114{fill-rule:evenodd;clip-rule:evenodd;fill:#5CCFD5;}
	.st115{fill-rule:evenodd;clip-rule:evenodd;fill:#ACD5CD;}
	.st116{fill-rule:evenodd;clip-rule:evenodd;fill:#B5ECC9;}
	.st117{fill-rule:evenodd;clip-rule:evenodd;fill:#A1D683;}
	.st118{fill-rule:evenodd;clip-rule:evenodd;fill:#DEF0D3;}
	.st119{fill-rule:evenodd;clip-rule:evenodd;fill:#91B9B4;}
	.st120{fill-rule:evenodd;clip-rule:evenodd;fill:#006860;}
	.st121{fill-rule:evenodd;clip-rule:evenodd;fill:#00ADBB;}
	.st122{fill-rule:evenodd;clip-rule:evenodd;fill:#B4E7E9;}
	.st123{fill-rule:evenodd;clip-rule:evenodd;fill:#007565;}
	.st124{fill-rule:evenodd;clip-rule:evenodd;fill:#00CE7C;}
	.st125{fill-rule:evenodd;clip-rule:evenodd;fill:#5FD896;}
	.st126{fill:#007DA5;}
	.st127{fill:#313032;}
	.st128{fill:#24272A;}
	.st129{fill:#00AFAA;}
	.st130{fill:#66C9BA;}
	.st131{fill:#0069A7;}
	.st132{fill:#002F87;}
	.st133{fill:#8BC53F;}
	.st134{fill:#1A1A1A;}
	.st135{fill:#0095D6;}
	.st136{fill:#003F5F;}
	.st137{fill:#2D317C;}
	.st138{fill:#41BFBF;}
	.st139{fill:#293C97;}
	.st140{fill:#52C2BD;}
	.st141{fill:url(#SVGID_134_);}
	.st142{fill:url(#SVGID_135_);}
	.st143{fill:url(#SVGID_136_);}
	.st144{fill:#0DBEEA;}
	.st145{fill:#097EC2;}
	.st146{fill:#133C63;}
	.st147{fill:#3B91CF;}
	.st148{fill:#C8DEE8;}
	.st149{fill:#629BBA;}
	.st150{fill:#F8BE19;}
	.st151{fill:url(#SVGID_137_);}
	.st152{fill:url(#SVGID_138_);}
	.st153{fill:url(#SVGID_139_);}
	.st154{fill:#00233B;}
	.st155{fill:url(#SVGID_140_);}
	.st156{fill:url(#SVGID_141_);}
	.st157{fill:url(#SVGID_142_);}
	.st158{fill:url(#SVGID_143_);}
	.st159{fill:url(#SVGID_144_);}
	.st160{fill:url(#SVGID_145_);}
	.st161{fill:url(#SVGID_146_);}
	.st162{fill:url(#SVGID_147_);}
	.st163{fill:url(#SVGID_148_);}
	.st164{fill:url(#SVGID_149_);}
	.st165{fill:url(#SVGID_150_);}
	.st166{fill:url(#SVGID_151_);}
	.st167{fill:url(#SVGID_152_);}
	.st168{fill:url(#SVGID_153_);}
	.st169{fill:url(#SVGID_154_);}
	.st170{fill:url(#SVGID_155_);}
	.st171{fill:url(#SVGID_156_);}
	.st172{fill:url(#SVGID_157_);}
	.st173{fill:url(#SVGID_158_);}
	.st174{fill:url(#SVGID_159_);}
	.st175{fill:url(#SVGID_160_);}
	.st176{fill:url(#SVGID_161_);}
	.st177{fill:url(#SVGID_162_);}
	.st178{fill:url(#SVGID_163_);}
	.st179{fill:url(#SVGID_164_);}
	.st180{fill:url(#SVGID_165_);}
	.st181{fill:url(#SVGID_166_);}
	.st182{fill:url(#SVGID_167_);}
	.st183{fill:url(#SVGID_168_);}
	.st184{fill:url(#SVGID_169_);}
	.st185{fill:url(#SVGID_170_);}
	.st186{fill:url(#SVGID_171_);}
	.st187{fill:url(#SVGID_172_);}
	.st188{fill:url(#SVGID_173_);}
	.st189{fill:url(#SVGID_174_);}
	.st190{fill:url(#SVGID_175_);}
	.st191{fill:url(#SVGID_176_);}
	.st192{fill:url(#SVGID_177_);}
	.st193{fill:url(#SVGID_178_);}
	.st194{fill:#C31230;}
	.st195{fill:#807F82;}
	.st196{fill-rule:evenodd;clip-rule:evenodd;fill:#C31230;}
	.st197{fill-rule:evenodd;clip-rule:evenodd;fill:#807F82;}
	.st198{fill:#2D2D2D;}
	.st199{display:none;fill:#2D2D2D;}
	.st200{fill:#D11F3C;}
	.st201{fill:#E42C4C;stroke:#E42C4C;stroke-width:1.0503;stroke-miterlimit:10;}
	.st202{display:none;fill:#231F20;}
	.st203{display:none;fill:#FFFFFF;}
	.st204{fill:#FF7F30;}
	.st205{opacity:0.3;fill:#FF7F30;}
	.st206{opacity:0.6;fill:#FF7F30;}
	.st207{opacity:0.7;fill:#FF7F30;}
	.st208{fill:#221C35;}
	.st209{fill:#1B98D5;}
	.st210{fill:#173963;}
	.st211{fill:#009ADE;}
	.st212{fill:#003764;}
	.st213{fill:#2A7DE1;}
	.st214{opacity:0.4;clip-path:url(#XMLID_324_);fill:#221F1F;}
	.st215{fill:#002A3A;}
	.st216{fill:#0033A1;}
	.st217{fill:url(#SVGID_179_);}
	.st218{fill:url(#SVGID_180_);}
	.st219{fill:url(#SVGID_181_);}
	.st220{fill:url(#SVGID_182_);}
	.st221{fill:#007EC4;}
	.st222{fill-rule:evenodd;clip-rule:evenodd;fill:url(#SVGID_183_);}
	.st223{fill-rule:evenodd;clip-rule:evenodd;fill:#E6E7E8;}
	.st224{fill:#009345;}
	.st225{fill:#BBBCB8;}
	.st226{fill:#72C0EB;}
	.st227{fill:#939598;}
	.st228{fill-rule:evenodd;clip-rule:evenodd;fill:#2CB8EB;}
	.st229{fill:#2CB8EB;}
	.st230{fill:#81B83A;}
	.st231{fill-rule:evenodd;clip-rule:evenodd;fill:#81B83A;}
	.st232{enable-background:new    ;}
	.st233{fill:#FF6F3E;}
	.st234{fill:#12143D;}
	.st235{fill:url(#SVGID_184_);}
	.st236{fill:url(#SVGID_185_);}
	.st237{fill:url(#SVGID_186_);}
	.st238{fill:url(#SVGID_187_);}
	.st239{fill:url(#SVGID_188_);}
	.st240{fill:url(#SVGID_189_);}
	.st241{fill:url(#SVGID_190_);}
	.st242{fill:url(#SVGID_191_);}
	.st243{fill:url(#SVGID_192_);}
	.st244{fill:#7C51A0;}
	.st245{fill:#9F66A9;}
	.st246{fill:#9F80B9;}
	.st247{fill:url(#SVGID_193_);}
	.st248{fill:url(#SVGID_194_);}
	.st249{fill:url(#SVGID_195_);}
	.st250{fill:url(#SVGID_196_);}
	.st251{fill:#2D3136;}
	.st252{fill:#76777A;}
	.st253{fill:#A7A8A9;}
	.st254{fill:#0082CA;}
	.st255{fill:#FFB259;}
	.st256{fill:#385CAD;}
	.st257{fill:#7BA0C4;}
	.st258{fill:#EBA900;}
	.st259{fill:#929497;}
	.st260{opacity:0.7;fill:#FFFFFF;}
	.st261{fill:#016BAF;}
	.st262{fill:#343432;}
	.st263{fill:#6D6E70;}
	.st264{fill:#F4B01B;}
	.st265{fill:#293271;}
	.st266{fill:#A1D33C;}
	.st267{fill:#212322;}
	.st268{fill:#0047BA;}
	.st269{fill:#969CDE;}
	.st270{fill:#047BC1;}
	.st271{fill:url(#SVGID_197_);}
	.st272{fill:url(#SVGID_198_);}
	.st273{fill:url(#SVGID_199_);}
	.st274{fill:url(#SVGID_200_);}
	.st275{fill:url(#SVGID_201_);}
	.st276{fill:url(#SVGID_202_);}
	.st277{fill:url(#SVGID_203_);}
	.st278{fill:#13517C;}
	.st279{fill:#0077A6;}
	.st280{fill:none;stroke:#231F20;stroke-width:5.9036;stroke-miterlimit:10;}
	.st281{fill:#00A94F;}
	.st282{fill:none;stroke:#231F20;stroke-width:3.2172;stroke-miterlimit:10;}
	.st283{fill:#59595C;}
	.st284{opacity:0.349;fill:#F9AE19;}
	.st285{opacity:0.349;fill:#E99F22;}
	.st286{opacity:0.349;fill:#E47D25;}
	.st287{fill:#F9AE19;}
	.st288{fill:#E99F22;}
	.st289{fill:#F09B20;}
	.st290{fill:#E47D25;}
	.st291{fill:#E89223;}
	.st292{opacity:0.651;fill:#F9AE19;}
	.st293{fill:#E68825;}
	.st294{opacity:0.651;fill:#E99F22;}
	.st295{fill:#EB8D23;}
	.st296{opacity:0.7725;fill:#EF9B21;}
	.st297{opacity:0.651;fill:#E47D25;}
	.st298{opacity:0.7725;fill:#EA9622;}
	.st299{fill:url(#SVGID_204_);}
	.st300{fill:#55575B;}
	.st301{fill:#EE424E;}
	.st302{fill:#34424B;}
</style><g transform="matrix(.5562 0 0 .5562 -2.4918 185.57)">
	<path class="st3" d="m187.25 77.92-27.65-15.67-55.71 112.87-59.41-112.87-28.03 15.67 70.63 132.68c-0.51 1.26-2.12 4.73-4.85 10.49-2.76 5.48-5.61 10.97-8.6 16.45-5.25 9.47-10.58 17.17-16.06 23.16-5.48 6.23-11.09 11.21-16.84 14.95-5.72 3.75-11.68 6.59-17.92 8.6-5.99 1.98-12.11 3.6-18.33 4.85l12.73 26.55c3.99-0.51 9.32-1.77 16.06-3.74 6.98-1.74 14.56-5.12 22.8-10.1 8.21-4.97 16.58-12.07 25.02-21.3 8.75-9.23 16.84-21.42 24.3-36.62l81.86-165.97"/>
	<path class="st3" d="m373.21 160.53c0-12.94-2.36-25.05-7.11-36.26-4.49-11.21-10.85-20.91-19.05-29.16-8.24-8.21-17.95-14.56-29.16-19.06-11.21-4.73-23.31-7.1-36.25-7.1-12.95 0-25.05 2.37-36.26 7.1-11.21 4.49-20.94 10.85-29.16 19.06-8.21 8.24-14.71 17.95-19.44 29.16s-7.1 23.31-7.1 36.26 2.37 25.05 7.1 36.26c4.73 10.97 11.24 20.56 19.44 28.76 8.22 8.24 17.95 14.71 29.16 19.45 11.21 4.49 23.31 6.74 36.26 6.74 12.94 0 25.04-2.25 36.25-6.74 11.21-4.73 20.92-11.21 29.16-19.45 8.21-8.21 14.56-17.8 19.05-28.76 4.74-11.21 7.11-23.31 7.11-36.26m-34.76 0c0 8.72-1.49 16.81-4.49 24.3-3 7.46-7.1 13.96-12.31 19.42-5.01 5.24-10.97 9.47-17.95 12.73-6.74 2.97-14.09 4.46-22.05 4.46-7.97 0-15.47-1.5-22.42-4.46-6.98-3.27-13.09-7.49-18.34-12.73-4.97-5.45-8.96-11.96-11.95-19.42-3-7.49-4.49-15.58-4.49-24.3s1.49-16.81 4.49-24.3c2.99-7.46 6.98-13.93 11.95-19.42 5.24-5.48 11.36-9.74 18.34-12.71 6.95-3.27 14.45-4.88 22.42-4.88s15.31 1.62 22.05 4.88c6.98 2.97 12.94 7.22 17.95 12.71 5.21 5.48 9.31 11.95 12.31 19.42 2.99 7.49 4.49 15.58 4.49 24.3"/>
	<path class="st3" d="m864.95 160.53c0-12.94-2.37-25.05-7.1-36.26-4.49-11.21-10.85-20.91-19.06-29.16-8.24-8.21-17.95-14.56-29.16-19.06-11.21-4.73-23.31-7.1-36.26-7.1-12.97 0-25.05 2.37-36.26 7.1-11.21 4.49-20.95 10.85-29.15 19.06-8.21 8.24-14.71 17.95-19.45 29.16-4.73 11.21-7.1 23.31-7.1 36.26s2.37 25.05 7.1 36.26c4.73 10.97 11.24 20.56 19.45 28.76 8.21 8.24 17.95 14.71 29.15 19.45 11.21 4.49 23.28 6.74 36.26 6.74 12.94 0 25.05-2.25 36.26-6.74 11.21-4.73 20.92-11.21 29.16-19.45 8.21-8.21 14.56-17.8 19.06-28.76 4.73-11.21 7.1-23.31 7.1-36.26m-34.76 0c0 8.72-1.5 16.81-4.49 24.3-3 7.46-7.1 13.96-12.34 19.42-4.97 5.24-10.94 9.47-17.92 12.73-6.74 2.97-14.08 4.46-22.05 4.46s-15.46-1.5-22.44-4.46c-6.95-3.27-13.07-7.49-18.31-12.73-4.97-5.45-8.96-11.96-11.96-19.42-3-7.49-4.49-15.58-4.49-24.3s1.5-16.81 4.49-24.3c3-7.46 6.98-13.93 11.96-19.42 5.24-5.48 11.36-9.74 18.31-12.71 6.98-3.27 14.47-4.88 22.44-4.88s15.31 1.62 22.05 4.88c6.98 2.97 12.94 7.22 17.92 12.71 5.24 5.48 9.35 11.95 12.34 19.42 2.99 7.49 4.49 15.58 4.49 24.3"/>
	<path class="st3" d="m995.53 160.35c0 10.49-8.48 19-19 19-10.49 0-18.97-8.51-18.97-19s8.48-19 18.97-19c10.52 0.01 19 8.52 19 19z"/>
	<path class="st3" d="m618.49 12.42-33.29 18.7v40.87h-90.04c-65 0-104.13 31.67-104.13 89.35 0 89.59 93.34 106.49 159.71 74.46l-13.99-27.15c-52.53 22.95-110.69 13.18-110.69-47.91 0-39.43 20.5-61.01 68.32-61.01h90.82v108.92c0 48.15 55.16 49.23 89.35 29.48l-13.16-25.98c-21.99 11.15-42.9 12.58-42.9-8.78v-103.63h45.55v-27.75h-45.55z"/>
	<path class="st3" d="m230.49 324.65v62.89h12.01l0.15-26.52c21.42 1.35 29.43-6.11 29.43-19.27 0-11.81-10.61-17.11-20.76-17.11h-20.83zm12.01 10.19h8.3c4.22-0.03 8.33 2.97 8.33 7.22 0 7.1-8.03 8.21-8.03 8.21l-8.6 0.03z"/>
	<path class="st3" d="m472.42 356.14c0-4.49-0.87-8.66-2.64-12.58-1.74-3.93-4.1-7.37-7.19-10.25-3-2.91-6.57-5.18-10.7-6.83-4.07-1.71-8.48-2.55-13.22-2.55-4.7 0-9.14 0.84-13.27 2.55-4.07 1.65-7.61 3.92-10.61 6.83-3.02 2.88-5.42 6.32-7.19 10.25-1.71 3.92-2.55 8.09-2.55 12.58 0 4.56 0.83 8.78 2.55 12.68 1.76 3.89 4.17 7.31 7.19 10.25 3 2.91 6.54 5.18 10.61 6.83 4.13 1.65 8.57 2.49 13.27 2.49 4.74 0 9.14-0.84 13.22-2.49 4.14-1.65 7.7-3.92 10.7-6.83 3.08-2.93 5.45-6.35 7.19-10.25 1.77-3.9 2.64-8.13 2.64-12.68m-12.23 0c0 3.09-0.53 5.93-1.68 8.6-1.04 2.58-2.55 4.85-4.49 6.8-1.95 1.95-4.22 3.47-6.83 4.62-2.61 1.05-5.39 1.59-8.42 1.59-3 0-5.82-0.54-8.39-1.59-2.61-1.14-4.88-2.67-6.82-4.62-1.89-1.95-3.39-4.22-4.53-6.8-1.11-2.67-1.68-5.51-1.68-8.6 0-3.06 0.57-5.9 1.68-8.51 1.13-2.63 2.64-4.94 4.53-6.89 1.95-1.95 4.22-3.45 6.82-4.52 2.58-1.11 5.39-1.68 8.39-1.68 3.03 0 5.81 0.57 8.42 1.68 2.61 1.08 4.88 2.58 6.83 4.52 1.95 1.95 3.45 4.25 4.49 6.89 1.15 2.61 1.68 5.45 1.68 8.51"/>
	<path class="st3" d="m521.47 324.77v47.67c0 1.92-1.41 4.05-3.75 4.11l-3.78 0.15 0.24 11.69 3.51 0.06c11.75 0.18 15.82-10.88 15.82-16.03v-47.55"/>
	<polyline class="st3" points="623.83 324.62 583.73 324.62 583.73 387.3 624.01 387.3 623.8 377.2 595.75 377.2 595.75 360.84 619.21 360.84 619.21 350.75 595.75 350.75 595.75 334.89 623.62 334.89 623.83 324.62"/>
	<path class="st3" d="m721.21 329.5c-28.65-14.86-58.1-0.75-58.1 26.37 0 29.94 33.23 39.82 58.46 25.95l-3.8-10.28c-26.28 13.75-42.25 0.96-42.25-15.67 0-20.64 20.23-27.48 40.72-16.21"/>
	<polyline class="st3" points="761.45 324.62 761.18 334.89 780.39 334.89 780.39 387.48 792.43 387.48 792.43 334.89 812.45 334.89 812.42 324.62"/>
	<path class="st3" d="m319.7 324.65v62.89h12.01v-27.06h7.94l13.91 27.06h13.63l-16.54-30.32c6.56-2.94 9.98-8.09 9.98-15.46 0-12.29-10.76-17.11-22.6-17.11zm12.01 10.19h8.33c4.19-0.03 8.3 2.97 8.3 7.22 0 7.1-8.03 8.21-8.03 8.21l-8.6 0.03z"/>
</g></svg>
