<?xml version="1.0" encoding="UTF-8"?>
<svg color="#272727" fill="#d5ab88" version="1.1" viewBox="0 0 36 36" xmlns="http://www.w3.org/2000/svg">
 <path d="M19 0c-1.721 0-3.343 0.406-4.793 1.111C13.814 1.043 13.412 1 13 1 9.134 1 6 4.134 6 8v12h0.018C6.201 26.467 11.489 31.656 18 31.656S29.799 26.467 29.982 20H30v-9c0-6.075-4.925-11-11-11z" fill="#963b22"/>
 <path d="M27 21H9c-2.209 0-4 1.791-4 4v11h26V25c0-2.209-1.791-4-4-4z" fill="#9268ca"/>
 <path d="M14 5c0 0-3e-3 5.308-5 5.936V17c0 4.971 4.029 9 9 9s9-4.029 9-9v-5.019C15.89 11.605 14 5 14 5z"/>
 <path d="m10 27h1v9h-1z" fill="#7450a8"/>
 <path d="M4.702 26.495 4.419 26.436H3.908c0-0.058 0.023-0.112 0.035-0.169-0.348-0.215-0.546-0.625-0.458-1.048 0.112-0.542 0.643-0.89 1.186-0.779l2.091 0.433h1.676c0.863 0 1.562 0.7 1.562 1.564V28H6.253c0 0-1.481-0.669-1.551-1.505z" fill="#b78b60"/>
 <path d="M0 25.655c0-0.432 0.35-0.782 0.781-0.782l4.69 0.782h3.747c0.432 0 0.781 0.351 0.781 0.781V28H5l-4.219-1.563c0 0-0.781-0.35-0.781-0.782z"/>
 <path d="M4 36h6v-8H5z" fill="#9268ca"/>
 <path d="m25 27h1v9h-1z" fill="#7450a8"/>
 <path d="M31.298 26.495l0.283-0.059h0.511c0-0.058-0.023-0.112-0.035-0.169 0.348-0.215 0.546-0.625 0.458-1.048-0.112-0.542-0.642-0.89-1.185-0.779l-2.091 0.433h-1.676c-0.863 0-1.562 0.7-1.562 1.564V28h3.747c-1e-3 0 1.48-0.669 1.55-1.505z" fill="#b78b60"/>
 <path d="m36 25.655c0-0.432-0.35-0.782-0.781-0.782l-4.691 0.782h-3.747c-0.432 0-0.781 0.351-0.781 0.781v1.564h5l4.219-1.563s0.781-0.35 0.781-0.782z"/>
 <path d="m32 36h-6v-8h5z" fill="#9268ca"/>
 <path d="m19 19.5h-2c-0.276 0-0.5-0.224-0.5-0.5s0.224-0.5 0.5-0.5h2c0.276 0 0.5 0.224 0.5 0.5s-0.224 0.5-0.5 0.5z" fill="#c1694f"/>
 <path d="m14 16c-0.552 0-1-0.448-1-1v-1c0-0.552 0.448-1 1-1s1 0.448 1 1v1c0 0.552-0.448 1-1 1zm8 0c-0.553 0-1-0.448-1-1v-1c0-0.552 0.447-1 1-1s1 0.448 1 1v1c0 0.552-0.447 1-1 1z" fill="#662113"/>
</svg>
