<svg viewBox="0 0 36 36" color="#272727" fill="#af7e57" xmlns="http://www.w3.org/2000/svg" xmlns:xlink="http://www.w3.org/1999/xlink">
    <path fill="#60352a" d="M21.906 1.262c-2.02-0.654-6.772-0.475-7.96 1.069-3.089 0.059-6.713 2.851-7.188 6.535-0.47 3.645 0.578 5.338 0.951 8.079 0.422 3.106 2.168 4.099 3.564 4.515C13.281 24.114 15.415 24 19 24c7 0 10.334-4.684 10.629-12.639 0.178-4.812-2.645-8.456-7.723-10.099z" />
    <path fill="#fa743e" d="M27 21H9c-2.209 0-4 1.791-4 4v11h26V25c0-2.209-1.791-4-4-4z" />
    <path d="M25.904 11.734c-0.677-0.938-1.545-1.693-3.446-1.96 0.713 0.327 1.396 1.455 1.485 2.079s0.178 1.129-0.386 0.505c-2.261-2.499-4.723-1.515-7.163-3.041-1.703-1.067-2.222-2.247-2.222-2.247s-0.208 1.574-2.792 3.178c-0.749 0.465-1.643 1.501-2.139 3.03-0.356 1.099-0.246 2.079-0.246 3.754 0 4.889 4.029 9 9 9s9-4.147 9-9c0-3.041-0.318-4.229-1.091-5.298z" />
    <path fill="#dd551f" d="M10 27h1v9h-1z" />
    <path fill="#90603e" d="M4.702 26.495 4.419 26.436H3.908c0-0.058 0.023-0.112 0.035-0.169-0.348-0.215-0.546-0.625-0.458-1.048 0.112-0.542 0.643-0.89 1.186-0.779l2.091 0.433h1.676c0.863 0 1.562 0.7 1.562 1.564V28H6.253c0 0-1.481-0.669-1.551-1.505z" />
    <path d="M0 25.655c0-0.432 0.35-0.782 0.781-0.782l4.69 0.782h3.747c0.432 0 0.781 0.351 0.781 0.781V28H5l-4.219-1.563c0 0-0.781-0.35-0.781-0.782z" />
    <path fill="#fa743e" d="M4 36h6v-8H5z" />
    <path fill="#dd551f" d="M25 27h1v9h-1z" />
    <path fill="#90603e" d="M31.298 26.495l0.283-0.059h0.511c0-0.058-0.023-0.112-0.035-0.169 0.348-0.215 0.546-0.625 0.458-1.048-0.112-0.542-0.642-0.89-1.185-0.779l-2.091 0.433h-1.676c-0.863 0-1.562 0.7-1.562 1.564V28h3.747c-1e-3 0 1.48-0.669 1.55-1.505z" />
    <path d="M36 25.655c0-0.432-0.35-0.782-0.781-0.782l-4.691 0.782h-3.747c-0.432 0-0.781 0.351-0.781 0.781V28h5l4.219-1.563c0 0 0.781-0.35 0.781-0.782z" />
    <path fill="#fa743e" d="M32 36h-6v-8h5z" />
    <path fill="#915a34" d="M19 19.5h-2c-0.276 0-0.5-0.224-0.5-0.5s0.224-0.5 0.5-0.5h2c0.276 0 0.5 0.224 0.5 0.5s-0.224 0.5-0.5 0.5zM20.5 23H20c-0.276 0-0.5-0.224-0.5-0.5S19.724 22 20 22h0.5c0.276 0 0.5 0.224 0.5 0.5S20.776 23 20.5 23z" />
    <path fill="#662113" d="M14 16c-0.552 0-1-0.448-1-1v-1c0-0.552 0.448-1 1-1s1 0.448 1 1v1c0 0.552-0.448 1-1 1zM22 16c-0.553 0-1-0.448-1-1v-1c0-0.552 0.447-1 1-1s1 0.448 1 1v1c0 0.552-0.447 1-1 1z" />
</svg>

