<?xml version="1.0" encoding="UTF-8"?>
<svg version="1.1" viewBox="0 0 19.282 16.882" fill="#ddd" xmlns="http://www.w3.org/2000/svg">
 <path d="m2.9095 14.284c-0.20718 0.20489-0.20718 0.53822 0 0.74311l0.94727 0.91173c0.20718 0.20489 0.53589 0.11862 0.74308-0.08627l4.8878-4.7292-1.4971-1.6803z" style="stroke-width:.98819"/>
 <path d="m19.22 2.0957c-0.080967-0.51343-0.36107-0.40638-0.50659-0.18916-0.14552 0.2193-0.78888 1.1453-1.0537 1.5652-0.2626 0.41573-0.91033 1.2378-2.1161 0.42613-1.2561-0.8429-0.81952-1.4312-0.60069-1.8272 0.21992-0.39807 0.89501-1.5143 0.99239-1.6525 0.09738-0.14031-0.01641-0.54773-0.40593-0.37728-0.39061 0.17045-2.7605 1.0653-3.0888 2.3489-0.3359 1.3054 0.2812 2.4726-0.93002 3.6314l-1.4694 1.4551 1.476 1.6276 1.8097-1.6318c0.43109-0.41158 1.3524-0.81172 2.1861-0.63088 1.7867 0.38351 2.7616-0.2536 3.3492-1.3075 0.52738-0.94164 0.43985-2.9247 0.35779-3.4381z" style="stroke-width:1.0664"/>
 <path d="m8.219 5.6359c-0.12-0.139-0.269-0.143-0.397-0.029l-1.434 1.252c-0.113 0.1-0.129 0.283-0.027 0.4l8.294 9.439c0.194 0.223 0.53 0.246 0.751 0.053l0.97-0.813c0.222-0.195 0.245-0.533 0.052-0.758z"/>
 <path d="m3.0941 5.808c0.933-0.725 1.707-0.225 2.74 0.971 0.116 0.135 0.272-0.023 0.361-0.1 0.088-0.078 1.451-1.305 1.518-1.361 0.066-0.059 0.146-0.169 0.041-0.292-0.107-0.123-0.494-0.625-0.743-0.951-1.808-2.365 4.946-3.969 3.909-3.994-0.528-0.014-2.646-0.039-2.963-4e-3 -1.283 0.135-2.894 1.334-3.705 1.893-1.061 0.726-1.457 1.152-1.522 1.211-0.3 0.262-0.048 0.867-0.592 1.344-0.575 0.503-0.934 0.122-1.267 0.414-0.165 0.146-0.627 0.492-0.759 0.607-0.133 0.117-0.157 0.314-0.021 0.471 0 0 1.264 1.396 1.37 1.52 0.105 0.122 0.391 0.228 0.567 0.071 0.177-0.156 0.632-0.553 0.708-0.623 0.078-0.066-0.05-0.861 0.358-1.177z"/>
</svg>
