<svg viewBox="0 0 32 32" fill="#ddd" xmlns="http://www.w3.org/2000/svg" xmlns:xlink="http://www.w3.org/1999/xlink">
    <path d="M22.6121 20.5215A6.1582 6.1582 0 0 0 24 16.5254C24 13.4785 21.9812 11 19.5 11a4.2435 4.2435 0 0 0-3.5 2.06 4.2435 4.2435 0 0 0-3.5-2.06C10.0188 11 8 13.4785 8 16.5254a6.1593 6.1593 0 0 0 1.3879 3.9961c-0.5688 0.3686-0.9389 0.6416-0.988 0.6787a1 1 0 0 0-0.1807 1.4248C8.6592 23.1748 12.6169 28 16 28s7.3408-4.8252 7.7808-5.375A1 1 0 0 0 23.6 21.2c-0.049-0.0369-0.4188-0.31-0.9879-0.6785zM12.5 13c1.3552 0 2.5 1.6143 2.5 3.5254v1.5664a9.1005 9.1005 0 0 0-1.0244 0.2314A2.6411 2.6411 0 0 0 14 18c0-1.1045-0.6716-2-1.5-2S11 16.8955 11 18a2.38 2.38 0 0 0 0.4072 1.3623c-0.0813 0.0415-0.1687 0.0806-0.248 0.1221A4.0291 4.0291 0 0 1 10 16.5254C10 14.6143 11.1448 13 12.5 13zM16 26c-1.5691 0-3.9648-2.084-5.52-3.8057C11.9 21.2788 14.2656 20 16 20s4.1 1.2788 5.52 2.1943C19.9648 23.916 17.5691 26 16 26zM20.8408 19.4844c-0.0793-0.0415-0.1667-0.0806-0.248-0.1221A2.38 2.38 0 0 0 21 18c0-1.1045-0.6716-2-1.5-2S18 16.8955 18 18a2.6411 2.6411 0 0 0 0.0244 0.3232A9.1005 9.1005 0 0 0 17 18.0918v-1.5664C17 14.6143 18.1448 13 19.5 13s2.5 1.6143 2.5 3.5254a4.0291 4.0291 0 0 1-1.1592 2.959z" />
    <path d="M30 30a3.8876 3.8876 0 0 1-4-4V14a10 10 0 0 0-20 0v12a3.8876 3.8876 0 0 1-4 4v-2a1.8793 1.8793 0 0 0 2-2V14a12 12 0 0 1 24 0v12a1.8825 1.8825 0 0 0 2 2z" />
</svg>
